<?xml version="1.0" encoding="UTF-8" standalone="no"?>
<svg
   xmlns:dc="http://purl.org/dc/elements/1.1/"
   xmlns:cc="http://creativecommons.org/ns#"
   xmlns:rdf="http://www.w3.org/1999/02/22-rdf-syntax-ns#"
   xmlns:svg="http://www.w3.org/2000/svg"
   xmlns="http://www.w3.org/2000/svg"
   xmlns:sodipodi="http://sodipodi.sourceforge.net/DTD/sodipodi-0.dtd"
   xmlns:inkscape="http://www.inkscape.org/namespaces/inkscape"
   inkscape:version="1.0 (4035a4fb49, 2020-05-01)"
   sodipodi:docname="fan_1.svg"
   viewBox="0 0 1000 1000"
   height="1000"
   width="1000"
   id="svg1532"
   version="1.1">
  <metadata
     id="metadata1538">
    <rdf:RDF>
      <cc:Work
         rdf:about="">
        <dc:format>image/svg+xml</dc:format>
        <dc:type
           rdf:resource="http://purl.org/dc/dcmitype/StillImage" />
        <dc:title></dc:title>
      </cc:Work>
    </rdf:RDF>
  </metadata>
  <defs
     id="defs1536" />
  <sodipodi:namedview
     inkscape:current-layer="g1540"
     inkscape:window-maximized="1"
     inkscape:window-y="0"
     inkscape:window-x="0"
     inkscape:cy="500"
     inkscape:cx="500"
     inkscape:zoom="0.777"
     fit-margin-bottom="10"
     fit-margin-right="10"
     fit-margin-left="10"
     fit-margin-top="10"
     showgrid="false"
     id="namedview1534"
     inkscape:window-height="1016"
     inkscape:window-width="1920"
     inkscape:pageshadow="2"
     inkscape:pageopacity="0"
     guidetolerance="10"
     gridtolerance="10"
     objecttolerance="10"
     borderopacity="1"
     bordercolor="#666666"
     pagecolor="#ffffff"
     inkscape:document-rotation="0"
     lock-margins="true" />
  <g
     transform="translate(-328.87614,-729.12765)"
     id="g1540"
     inkscape:label="Image"
     inkscape:groupmode="layer">
    <path
       sodipodi:nodetypes="csssccc"
       id="path841-3-6"
       d="m 829.63201,1361.8748 c 0,0 12.51889,296.1254 -242.75184,273.1003 -175.87826,-15.8638 -219.6511,-219.9495 -183.44093,-345.0875 7.7065,-26.6324 64.29222,-147.6284 165.72742,-95.0243 39.50794,20.4886 88.40496,68.3341 172.72318,76.6077 -3.8807,48.0998 36.33636,91.3494 87.74185,90.4034 z"
       style="fill:none;fill-opacity:1;stroke:#663399;stroke-width:16.1973px;stroke-linecap:butt;stroke-linejoin:miter;stroke-opacity:1" />
    <path
       style="fill:none;fill-opacity:1;stroke:#663399;stroke-width:16.1973px;stroke-linecap:butt;stroke-linejoin:miter;stroke-opacity:1"
       d="m 898.36683,1232.8467 c 0,0 250.19257,-158.9042 357.88767,73.6793 74.2006,160.2469 -80.6563,300.1981 -207.1341,331.4081 -26.9174,6.6422 -159.99606,18.1356 -165.15717,-96.012 -2.01024,-44.4591 14.97666,-110.7279 -20.01742,-187.8864 43.59598,-20.6891 60.94278,-77.143 34.4207,-121.1884 z"
       id="path841-3"
       sodipodi:nodetypes="csssccc" />
    <path
       sodipodi:nodetypes="csssccc"
       id="path841"
       d="m 749.31322,1238.1977 c 0,0 -262.71143,-137.221 -115.13583,-346.77942 101.67767,-144.38312 300.30745,-80.24865 390.57491,13.67926 19.2112,19.99021 95.704,129.49286 -0.57,191.03636 -37.49781,23.9705 -103.38174,42.3938 -152.70588,111.2787 -39.71544,-27.4107 -97.2793,-14.2065 -122.16271,30.7851 z"
       style="fill:#663399;fill-opacity:1;stroke:#663399;stroke-width:16.1973px;stroke-linecap:butt;stroke-linejoin:miter;stroke-opacity:1" />
  </g>
</svg>
