<?xml version="1.0" encoding="UTF-8" standalone="no"?>
<svg
   xmlns:dc="http://purl.org/dc/elements/1.1/"
   xmlns:cc="http://creativecommons.org/ns#"
   xmlns:rdf="http://www.w3.org/1999/02/22-rdf-syntax-ns#"
   xmlns:svg="http://www.w3.org/2000/svg"
   xmlns="http://www.w3.org/2000/svg"
   xmlns:xlink="http://www.w3.org/1999/xlink"
   xmlns:sodipodi="http://sodipodi.sourceforge.net/DTD/sodipodi-0.dtd"
   xmlns:inkscape="http://www.inkscape.org/namespaces/inkscape"
   inkscape:version="1.0 (4035a4fb49, 2020-05-01)"
   sodipodi:docname="map_icon.svg"
   id="svg1840"
   xml:space="preserve"
   viewBox="0 0 1000 1000"
   height="1000"
   width="1000"
   y="0px"
   x="0px"
   version="1.1"><metadata
   id="metadata1846"><rdf:RDF><cc:Work
       rdf:about=""><dc:format>image/svg+xml</dc:format><dc:type
         rdf:resource="http://purl.org/dc/dcmitype/StillImage" /><dc:title></dc:title></cc:Work></rdf:RDF></metadata><defs
   id="defs1844">
	
	
	

		
			
	
		
			
	
		
		
		
		
		
	
			<defs
   id="defs1701">
				<polygon
   id="SVGID_1_"
   points="279,468.441 207,503.559 207,323.559 279,288.441 " />
			</defs>
			<clipPath
   id="SVGID_2_">
				<use
   xlink:href="#SVGID_1_"
   style="overflow:visible"
   id="use1703"
   x="0"
   y="0"
   width="100%"
   height="100%" />
			</clipPath>
			
		
			<defs
   id="defs1739">
				<polygon
   id="SVGID_3_"
   points="350.999,504.441 278.999,469.324 278.999,289.324 350.999,324.441 " />
			</defs>
			<clipPath
   id="SVGID_4_">
				<use
   xlink:href="#SVGID_3_"
   style="overflow:visible"
   id="use1741"
   x="0"
   y="0"
   width="100%"
   height="100%" />
			</clipPath>
			
		
			<defs
   id="defs1777">
				<polygon
   id="SVGID_5_"
   points="423,467.559 351,502.676 351,322.676 423,287.559 " />
			</defs>
			<clipPath
   id="SVGID_6_">
				<use
   xlink:href="#SVGID_5_"
   style="overflow:visible"
   id="use1779"
   x="0"
   y="0"
   width="100%"
   height="100%" />
			</clipPath>
			
		
			
			
			
			
			
			
			
			
			
		
				
				
				
					
				
					
				
				
				
				
				
				
				
				
				
				
			
				
				
				
					
				
					
				
				
				
				
				
				
				
				
				
				
			
				
				
				
					
				
					
				
				
				
				
				
				
				
				
				
				
			</defs><sodipodi:namedview
   inkscape:current-layer="svg1840"
   inkscape:window-maximized="1"
   inkscape:window-y="0"
   inkscape:window-x="0"
   inkscape:cy="537.51"
   inkscape:cx="526.54505"
   inkscape:zoom="0.54942197"
   showgrid="false"
   id="namedview1842"
   inkscape:window-height="1016"
   inkscape:window-width="1920"
   inkscape:pageshadow="2"
   inkscape:pageopacity="0"
   guidetolerance="10"
   gridtolerance="10"
   objecttolerance="10"
   borderopacity="1"
   bordercolor="#666666"
   pagecolor="#ffffff" />

<g
   id="Layer_2">
</g><path
   id="path1796"
   d="m 347.10245,1082.9343 c 0,0 -222.14252,-45.9218 -185.11876,-156.54058 37.02375,-110.61874 74.0475,-221.23337 74.0475,-221.23337"
   style="fill:none;stroke:#ffffff;stroke-width:7.51047;stroke-miterlimit:10" /><g
   id="g3691"><path
     style="fill:none;stroke:#ffffff;stroke-width:7.51047;stroke-miterlimit:10"
     d="m 50.912431,448.45411 c 0,0 148.095009,-72.23334 185.118759,-28.58233 37.02375,43.651 259.16626,27.86243 333.21377,-8.25219 74.0475,-36.11461 111.07125,7.53228 111.07125,38.38541 0,30.85312 -74.0475,221.23337 -74.0475,221.23337"
     id="path1716" /><path
     style="fill:none;stroke:#ffffff;stroke-width:7.51047;stroke-miterlimit:10"
     d="m 680.31621,110.62061 c 0,0 148.09501,-10.52709 111.07126,100.09165 C 754.36372,321.331 643.29246,406.35811 643.29246,406.35811"
     id="path1718" /><path
     style="fill:none;stroke:#ffffff;stroke-width:7.51047;stroke-miterlimit:10"
     d="m 347.10245,797.63746 c 0,0 -222.14252,-45.91768 -185.11876,-156.53643 37.02375,-110.61874 74.0475,-221.23337 74.0475,-221.23337"
     id="path1720" /><path
     style="fill:none;stroke:#ffffff;stroke-width:7.51047;stroke-miterlimit:10"
     d="m 50.912431,163.16142 c 0,0 148.095009,72.23334 185.118759,151.99485 37.02375,79.7615 259.16626,280.66883 333.21377,316.78344 74.0475,36.11462 111.06714,115.88023 111.06714,146.73336 0,30.85313 -74.04339,149.00415 -74.04339,149.00415"
     id="path1754" /><path
     style="fill:none;stroke:#ffffff;stroke-width:7.51047;stroke-miterlimit:10"
     d="m 680.3121,439.28868 c 0,0 148.09501,133.93548 111.07125,208.43961 -37.02375,74.4959 -148.09089,51.17916 -148.09089,51.17916"
     id="path1756" /><path
     style="fill:none;stroke:#ffffff;stroke-width:7.51047;stroke-miterlimit:10"
     d="m 347.10245,801.2699 c 0,0 -222.14252,-262.60947 -185.11876,-337.10949 37.02375,-74.50001 74.0475,-149.00414 74.0475,-149.00414"
     id="path1758" /><path
     style="fill:none;stroke:#ffffff;stroke-width:7.51047;stroke-miterlimit:10"
     d="m 680.31621,395.90918 c 0,0 148.09501,-10.52709 111.07126,100.09166 -37.02375,110.61874 -148.09501,195.64584 -148.09501,195.64584"
     id="path1794" /><polyline
     id="polyline1814"
     points="207,359.559 279,323.559 351,359.559      423,323.559    "
     style="fill:none;stroke:#663399;stroke-width:2;stroke-miterlimit:10;stroke-opacity:1"
     transform="matrix(4.1137502,0,0,4.1137502,-800.63386,-1129.4118)" /><polyline
     id="polyline1816"
     points="207,395.559 279,359.559 351,395.559      423,359.559    "
     style="fill:none;stroke:#663399;stroke-width:2;stroke-miterlimit:10;stroke-opacity:1"
     transform="matrix(4.1137502,0,0,4.1137502,-800.63386,-1129.4118)" /><polyline
     id="polyline1818"
     points="207,431.559 279,395.559 351,431.559      423,395.559    "
     style="fill:none;stroke:#663399;stroke-width:2;stroke-miterlimit:10;stroke-opacity:1"
     transform="matrix(4.1137502,0,0,4.1137502,-800.63386,-1129.4118)" /><polyline
     id="polyline1820"
     points="207,467.559 279,431.559 351,467.559      423,431.559    "
     style="fill:none;stroke:#663399;stroke-width:2;stroke-miterlimit:10;stroke-opacity:1"
     transform="matrix(4.1137502,0,0,4.1137502,-800.63386,-1129.4118)" /><line
     id="line1822"
     y2="868.01953"
     x2="199.00743"
     y1="127.58156"
     x1="199.00743"
     style="fill:none;stroke:#663399;stroke-width:8.2275;stroke-miterlimit:10;stroke-opacity:1" /><line
     id="line1824"
     y2="793.97205"
     x2="347.10245"
     y1="53.534054"
     x1="347.10245"
     style="fill:none;stroke:#663399;stroke-width:8.2275;stroke-miterlimit:10;stroke-opacity:1" /><line
     id="line1826"
     y2="868.01953"
     x2="495.19745"
     y1="127.58156"
     x1="495.19745"
     style="fill:none;stroke:#663399;stroke-width:8.2275;stroke-miterlimit:10;stroke-opacity:1" /><line
     id="line1828"
     y2="201.66196"
     x2="643.29248"
     y1="942.10413"
     x1="643.29248"
     style="fill:none;stroke:#663399;stroke-width:8.2275;stroke-miterlimit:10;stroke-opacity:1" /><line
     id="line1830"
     y2="868.01953"
     x2="791.38745"
     y1="127.58156"
     x1="791.38745"
     style="fill:none;stroke:#663399;stroke-width:8.2275;stroke-miterlimit:10;stroke-opacity:1" /><polygon
     style="fill:none;stroke:#663399;stroke-width:5;stroke-miterlimit:10;stroke-opacity:1"
     points="423,467.559 351,503.559 279,467.559 207,503.559 207,323.559 279,287.559 351,323.559 423,287.559 "
     id="polygon1834"
     transform="matrix(4.1137502,0,0,4.1137502,-800.63386,-1129.4118)" /></g>
</svg>
