<?xml version="1.0" encoding="UTF-8" standalone="no"?>
<svg
   xmlns:dc="http://purl.org/dc/elements/1.1/"
   xmlns:cc="http://creativecommons.org/ns#"
   xmlns:rdf="http://www.w3.org/1999/02/22-rdf-syntax-ns#"
   xmlns:svg="http://www.w3.org/2000/svg"
   xmlns="http://www.w3.org/2000/svg"
   xmlns:xlink="http://www.w3.org/1999/xlink"
   xmlns:sodipodi="http://sodipodi.sourceforge.net/DTD/sodipodi-0.dtd"
   xmlns:inkscape="http://www.inkscape.org/namespaces/inkscape"
   version="1.1"
   x="0px"
   y="0px"
   width="1000"
   height="1000"
   viewBox="0 0 1000 1000"
   xml:space="preserve"
   id="svg1840"
   sodipodi:docname="map_icon.svg"
   inkscape:version="1.0 (4035a4fb49, 2020-05-01)"><metadata
   id="metadata1846"><rdf:RDF><cc:Work
       rdf:about=""><dc:format>image/svg+xml</dc:format><dc:type
         rdf:resource="http://purl.org/dc/dcmitype/StillImage" /><dc:title /></cc:Work></rdf:RDF></metadata><defs
   id="defs1844">
	
	
	

		
			
	
		
			
	
		
		
		
		
		
	
			<defs
   id="defs1701">
				<polygon
   points="279,468.441 207,503.559 207,323.559 279,288.441 "
   id="SVGID_1_" />
			</defs>
			<clipPath
   id="SVGID_2_">
				<use
   height="100%"
   width="100%"
   y="0"
   x="0"
   id="use1703"
   style="overflow:visible"
   xlink:href="#SVGID_1_" />
			</clipPath>
			
		
			<defs
   id="defs1739">
				<polygon
   points="350.999,504.441 278.999,469.324 278.999,289.324 350.999,324.441 "
   id="SVGID_3_" />
			</defs>
			<clipPath
   id="SVGID_4_">
				<use
   height="100%"
   width="100%"
   y="0"
   x="0"
   id="use1741"
   style="overflow:visible"
   xlink:href="#SVGID_3_" />
			</clipPath>
			
		
			<defs
   id="defs1777">
				<polygon
   points="423,467.559 351,502.676 351,322.676 423,287.559 "
   id="SVGID_5_" />
			</defs>
			<clipPath
   id="SVGID_6_">
				<use
   height="100%"
   width="100%"
   y="0"
   x="0"
   id="use1779"
   style="overflow:visible"
   xlink:href="#SVGID_5_" />
			</clipPath>
			
		
			
			
			
			
			
			
			
			
			
		
				
				
				
					
				
					
				
				
				
				
				
				
				
				
				
				
			
				
				
				
					
				
					
				
				
				
				
				
				
				
				
				
				
			
				
				
				
					
				
					
				
				
				
				
				
				
				
				
				
				
			</defs><sodipodi:namedview
   inkscape:document-rotation="0"
   pagecolor="#ffffff"
   bordercolor="#666666"
   borderopacity="1"
   objecttolerance="10"
   gridtolerance="10"
   guidetolerance="10"
   inkscape:pageopacity="0"
   inkscape:pageshadow="2"
   inkscape:window-width="1920"
   inkscape:window-height="1016"
   id="namedview1842"
   showgrid="false"
   inkscape:zoom="0.54942197"
   inkscape:cx="526.54505"
   inkscape:cy="537.51"
   inkscape:window-x="0"
   inkscape:window-y="0"
   inkscape:window-maximized="1"
   inkscape:current-layer="svg1840" />

<g
   id="Layer_2">
</g><g
   style="stroke:#663399;stroke-opacity:1;fill:none"
   id="g1795"><polyline
     transform="matrix(4.1137502,0,0,4.1137502,-800.63386,-1129.4118)"
     style="fill:none;stroke:#663399;stroke-width:2;stroke-miterlimit:10;stroke-opacity:1"
     points="207,359.559 279,323.559 351,359.559      423,323.559    "
     id="polyline1814" /><polyline
     transform="matrix(4.1137502,0,0,4.1137502,-800.63386,-1129.4118)"
     style="fill:none;stroke:#663399;stroke-width:2;stroke-miterlimit:10;stroke-opacity:1"
     points="207,395.559 279,359.559 351,395.559      423,359.559    "
     id="polyline1816" /><polyline
     transform="matrix(4.1137502,0,0,4.1137502,-800.63386,-1129.4118)"
     style="fill:none;stroke:#663399;stroke-width:2;stroke-miterlimit:10;stroke-opacity:1"
     points="207,431.559 279,395.559 351,431.559      423,395.559    "
     id="polyline1818" /><polyline
     transform="matrix(4.1137502,0,0,4.1137502,-800.63386,-1129.4118)"
     style="fill:none;stroke:#663399;stroke-width:2;stroke-miterlimit:10;stroke-opacity:1"
     points="207,467.559 279,431.559 351,467.559      423,431.559    "
     id="polyline1820" /><line
     style="fill:none;stroke:#663399;stroke-width:8.2275;stroke-miterlimit:10;stroke-opacity:1"
     x1="199.00743"
     y1="127.58156"
     x2="199.00743"
     y2="868.01953"
     id="line1822" /><line
     style="fill:none;stroke:#663399;stroke-width:8.2275;stroke-miterlimit:10;stroke-opacity:1"
     x1="347.10245"
     y1="53.534054"
     x2="347.10245"
     y2="793.97205"
     id="line1824" /><line
     style="fill:none;stroke:#663399;stroke-width:8.2275;stroke-miterlimit:10;stroke-opacity:1"
     x1="495.19745"
     y1="127.58156"
     x2="495.19745"
     y2="868.01953"
     id="line1826" /><line
     style="fill:none;stroke:#663399;stroke-width:8.2275;stroke-miterlimit:10;stroke-opacity:1"
     x1="643.29248"
     y1="942.10413"
     x2="643.29248"
     y2="201.66196"
     id="line1828" /><line
     style="fill:none;stroke:#663399;stroke-width:8.2275;stroke-miterlimit:10;stroke-opacity:1"
     x1="791.38745"
     y1="127.58156"
     x2="791.38745"
     y2="868.01953"
     id="line1830" /><polygon
     transform="matrix(4.1137502,0,0,4.1137502,-800.63386,-1129.4118)"
     id="polygon1834"
     points="207,323.559 279,287.559 351,323.559 423,287.559 423,467.559 351,503.559 279,467.559 207,503.559 "
     style="fill:none;stroke:#663399;stroke-width:5;stroke-miterlimit:10;stroke-opacity:1" /></g>
</svg>
