<?xml version="1.0" encoding="UTF-8" standalone="no"?>
<svg
   xmlns:dc="http://purl.org/dc/elements/1.1/"
   xmlns:cc="http://creativecommons.org/ns#"
   xmlns:rdf="http://www.w3.org/1999/02/22-rdf-syntax-ns#"
   xmlns:svg="http://www.w3.org/2000/svg"
   xmlns="http://www.w3.org/2000/svg"
   xmlns:sodipodi="http://sodipodi.sourceforge.net/DTD/sodipodi-0.dtd"
   xmlns:inkscape="http://www.inkscape.org/namespaces/inkscape"
   sodipodi:docname="mode_deep.svg"
   inkscape:version="1.0 (4035a4fb49, 2020-05-01)"
   id="svg1251"
   version="1.1"
   viewBox="0 0 21.870904 21.975466"
   height="21.975466mm"
   width="21.870905mm">
  <defs
     id="defs1245">
    <marker
       inkscape:stockid="Arrow1Send"
       orient="auto"
       refY="0"
       refX="0"
       id="Arrow1Send"
       style="overflow:visible"
       inkscape:isstock="true">
      <path
         id="path854"
         d="M 0,0 5,-5 -12.5,0 5,5 Z"
         style="fill:#663399;fill-opacity:1;fill-rule:evenodd;stroke:#663399;stroke-width:1pt;stroke-opacity:1"
         transform="matrix(-0.2,0,0,-0.2,-1.2,0)" />
    </marker>
    <marker
       inkscape:stockid="Arrow1Send"
       orient="auto"
       refY="0"
       refX="0"
       id="marker1892"
       style="overflow:visible"
       inkscape:isstock="true">
      <path
         id="path1890"
         d="M 0,0 5,-5 -12.5,0 5,5 Z"
         style="fill:#663399;fill-opacity:1;fill-rule:evenodd;stroke:#663399;stroke-width:1pt;stroke-opacity:1"
         transform="matrix(-0.2,0,0,-0.2,-1.2,0)" />
    </marker>
    <marker
       inkscape:stockid="Arrow1Send"
       orient="auto"
       refY="0"
       refX="0"
       id="marker2062"
       style="overflow:visible"
       inkscape:isstock="true">
      <path
         id="path2060"
         d="M 0,0 5,-5 -12.5,0 5,5 Z"
         style="fill:#663399;fill-opacity:1;fill-rule:evenodd;stroke:#663399;stroke-width:1pt;stroke-opacity:1"
         transform="matrix(-0.2,0,0,-0.2,-1.2,0)" />
    </marker>
    <marker
       inkscape:stockid="Arrow1Send"
       orient="auto"
       refY="0"
       refX="0"
       id="marker2135"
       style="overflow:visible"
       inkscape:isstock="true">
      <path
         id="path2133"
         d="M 0,0 5,-5 -12.5,0 5,5 Z"
         style="fill:#663399;fill-opacity:1;fill-rule:evenodd;stroke:#663399;stroke-width:1pt;stroke-opacity:1"
         transform="matrix(-0.2,0,0,-0.2,-1.2,0)" />
    </marker>
    <rect
       x="152.42015"
       y="616.79688"
       width="124.0148"
       height="40.162628"
       id="rect2475" />
    <rect
       x="152.42015"
       y="616.79688"
       width="124.0148"
       height="40.162628"
       id="rect2645" />
  </defs>
  <sodipodi:namedview
     inkscape:window-maximized="1"
     inkscape:window-y="0"
     inkscape:window-x="0"
     inkscape:window-height="1016"
     inkscape:window-width="1920"
     fit-margin-bottom="3"
     fit-margin-right="3"
     fit-margin-left="3"
     fit-margin-top="3"
     lock-margins="true"
     showgrid="false"
     inkscape:document-rotation="0"
     inkscape:current-layer="layer1"
     inkscape:document-units="mm"
     inkscape:cy="37.545659"
     inkscape:cx="17.627339"
     inkscape:zoom="6.657364"
     inkscape:pageshadow="2"
     inkscape:pageopacity="0.0"
     borderopacity="1.0"
     bordercolor="#666666"
     pagecolor="#ffffff"
     id="base" />
  <metadata
     id="metadata1248">
    <rdf:RDF>
      <cc:Work
         rdf:about="">
        <dc:format>image/svg+xml</dc:format>
        <dc:type
           rdf:resource="http://purl.org/dc/dcmitype/StillImage" />
        <dc:title></dc:title>
      </cc:Work>
    </rdf:RDF>
  </metadata>
  <g
     transform="translate(-61.53826,-72.235331)"
     id="layer1"
     inkscape:groupmode="layer"
     inkscape:label="Capa 1">
    <g
       transform="matrix(0.26458333,0,0,0.26458333,16.254446,-74.208089)"
       aria-label="x2"
       id="text2467"
       style="font-style:normal;font-weight:normal;font-size:14.6667px;line-height:1.25;font-family:sans-serif;letter-spacing:0px;word-spacing:0px;white-space:pre;shape-inside:url(#rect2469);fill:#663399;fill-opacity:1;stroke:none">
      <path
         d="m 201.26824,577.15627 -5.26043,-7.1224 h 4.93491 l 2.98177,4.32292 3.02084,-4.32292 h 4.9349 l -5.26042,7.09636 5.52084,7.48699 h -4.93491 l -3.28125,-4.60938 -3.24219,4.60938 h -4.9349 z"
         style="font-style:normal;font-variant:normal;font-weight:bold;font-stretch:normal;font-size:26.6667px;font-family:sans-serif;-inkscape-font-specification:'sans-serif Bold';fill:#663399;fill-opacity:1"
         id="path2496" />
      <path
         d="m 220.22659,580.93232 h 8.5547 v 3.6849 h -14.12762 v -3.6849 l 7.09636,-6.26303 q 0.95053,-0.85938 1.40626,-1.67969 0.45572,-0.82032 0.45572,-1.70573 0,-1.36719 -0.92448,-2.20053 -0.91146,-0.83333 -2.43489,-0.83333 -1.17188,0 -2.56511,0.50781 -1.39323,0.49479 -2.98178,1.48438 v -4.27084 q 1.69271,-0.5599 3.34636,-0.84635 1.65365,-0.29948 3.24219,-0.29948 3.48959,0 5.41668,1.53646 1.9401,1.53646 1.9401,4.28386 0,1.58854 -0.82031,2.96875 -0.82031,1.36719 -3.45053,3.67188 z"
         style="font-style:normal;font-variant:normal;font-weight:bold;font-stretch:normal;font-size:26.6667px;font-family:sans-serif;-inkscape-font-specification:'sans-serif Bold';fill:#663399;fill-opacity:1"
         id="path2498" />
    </g>
    <path
       d="m 68.193344,83.545839 v 2.199871 h 0.462333 q 0.585494,0 0.856454,-0.265272 0.272851,-0.265274 0.272851,-0.837506 0,-0.568442 -0.272851,-0.831819 -0.27096,-0.265274 -0.856454,-0.265274 z m -0.382751,-0.314536 h 0.786344 q 0.822346,0 1.206992,0.342958 0.384646,0.341066 0.384646,1.068671 0,0.731395 -0.38654,1.074356 -0.386541,0.342961 -1.205098,0.342961 h -0.786344 z"
       style="font-style:normal;font-weight:normal;font-size:14.6667px;line-height:1.25;font-family:sans-serif;text-align:center;letter-spacing:0px;word-spacing:0px;text-anchor:middle;white-space:pre;fill:#663399;fill-opacity:1;stroke:none;stroke-width:0.264583"
       id="path2749" />
    <path
       d="m 72.59877,84.911994 v 0.170535 h -1.603007 q 0.02273,0.360013 0.216009,0.549492 0.195164,0.187587 0.541914,0.187587 0.20085,0 0.388435,-0.04927 0.189481,-0.04926 0.375171,-0.147793 v 0.329694 q -0.187584,0.07958 -0.384643,0.121269 -0.197062,0.04169 -0.399807,0.04169 -0.507807,0 -0.805291,-0.29559 -0.29559,-0.29559 -0.29559,-0.799608 0,-0.521073 0.280432,-0.826138 0.282326,-0.306956 0.759817,-0.306956 0.428226,0 0.676444,0.27664 0.250116,0.274746 0.250116,0.748448 z m -0.348644,-0.102319 q -0.0038,-0.286116 -0.16106,-0.456647 -0.155373,-0.170532 -0.413067,-0.170532 -0.291801,0 -0.468016,0.164846 -0.174324,0.164848 -0.200851,0.46423 z"
       style="font-style:normal;font-weight:normal;font-size:14.6667px;line-height:1.25;font-family:sans-serif;text-align:center;letter-spacing:0px;word-spacing:0px;text-anchor:middle;white-space:pre;fill:#663399;fill-opacity:1;stroke:none;stroke-width:0.264583"
       id="path2751" />
    <path
       d="m 74.986227,84.911994 v 0.170535 H 73.38322 q 0.02273,0.360013 0.216009,0.549492 0.195164,0.187587 0.541914,0.187587 0.200851,0 0.388435,-0.04927 0.189481,-0.04926 0.375171,-0.147793 v 0.329694 q -0.187584,0.07958 -0.384646,0.121269 -0.197059,0.04169 -0.399804,0.04169 -0.507807,0 -0.805291,-0.29559 -0.29559,-0.29559 -0.29559,-0.799608 0,-0.521073 0.280429,-0.826138 0.282327,-0.306956 0.75982,-0.306956 0.428226,0 0.676445,0.27664 0.250115,0.274746 0.250115,0.748448 z m -0.348644,-0.102319 q -0.0038,-0.286116 -0.161059,-0.456647 -0.155374,-0.170532 -0.413068,-0.170532 -0.291801,0 -0.468019,0.164846 -0.17432,0.164848 -0.200848,0.46423 z"
       style="font-style:normal;font-weight:normal;font-size:14.6667px;line-height:1.25;font-family:sans-serif;text-align:center;letter-spacing:0px;word-spacing:0px;text-anchor:middle;white-space:pre;fill:#663399;fill-opacity:1;stroke:none;stroke-width:0.264583"
       id="path2753" />
    <path
       d="m 75.895733,85.741921 v 1.125516 h -0.350539 v -2.929371 h 0.350539 v 0.322117 q 0.1099,-0.189482 0.276643,-0.280432 0.168637,-0.09284 0.401698,-0.09284 0.38654,0 0.627182,0.306956 0.242535,0.306959 0.242535,0.807188 0,0.50023 -0.242535,0.807189 -0.240642,0.306959 -0.627182,0.306959 -0.233061,0 -0.401698,-0.09095 -0.166743,-0.09284 -0.276643,-0.282326 z m 1.186151,-0.740871 q 0,-0.384646 -0.159166,-0.602549 -0.157268,-0.219797 -0.433909,-0.219797 -0.276643,0 -0.435805,0.219797 -0.157271,0.217903 -0.157271,0.602549 0,0.384646 0.157271,0.604444 0.159162,0.217902 0.435805,0.217902 0.276641,0 0.433909,-0.217902 0.159166,-0.219798 0.159166,-0.604444 z"
       style="font-style:normal;font-weight:normal;font-size:14.6667px;line-height:1.25;font-family:sans-serif;text-align:center;letter-spacing:0px;word-spacing:0px;text-anchor:middle;white-space:pre;fill:#663399;fill-opacity:1;stroke:none;stroke-width:0.264583"
       id="path2755" />
    <path
       d="m 66.21706,88.362902 v 0.325908 q -0.147793,-0.08148 -0.297484,-0.121269 -0.147796,-0.04169 -0.299379,-0.04169 -0.339172,0 -0.526756,0.216008 -0.187587,0.214112 -0.187587,0.602549 0,0.388435 0.187587,0.604443 0.187584,0.214112 0.526756,0.214112 0.151583,0 0.299379,-0.03979 0.149691,-0.04169 0.297484,-0.123161 v 0.322117 q -0.145899,0.06821 -0.30317,0.10232 -0.155374,0.0341 -0.331589,0.0341 -0.479388,0 -0.761714,-0.301274 -0.282327,-0.301273 -0.282327,-0.812871 0,-0.519179 0.284224,-0.816663 0.286115,-0.297484 0.782553,-0.297484 0.161059,0 0.314539,0.03411 0.153479,0.03221 0.297484,0.09853 z"
       style="font-style:normal;font-weight:normal;font-size:14.6667px;line-height:1.25;font-family:sans-serif;text-align:center;letter-spacing:0px;word-spacing:0px;text-anchor:middle;white-space:pre;fill:#663399;fill-opacity:1;stroke:none;stroke-width:0.264583"
       id="path2757" />
    <path
       d="m 66.823398,87.455291 h 0.348644 v 2.948318 h -0.348644 z"
       style="font-style:normal;font-weight:normal;font-size:14.6667px;line-height:1.25;font-family:sans-serif;text-align:center;letter-spacing:0px;word-spacing:0px;text-anchor:middle;white-space:pre;fill:#663399;fill-opacity:1;stroke:none;stroke-width:0.264583"
       id="path2759" />
    <path
       d="m 69.71677,89.255357 v 0.170532 h -1.603007 q 0.02273,0.360013 0.216008,0.549494 0.195165,0.187585 0.541915,0.187585 0.200847,0 0.388434,-0.04926 0.189482,-0.04926 0.375172,-0.147796 v 0.329697 q -0.187585,0.07958 -0.384646,0.121266 -0.197059,0.04169 -0.399804,0.04169 -0.507807,0 -0.805294,-0.29559 -0.29559,-0.29559 -0.29559,-0.799608 0,-0.521071 0.280432,-0.826135 0.282326,-0.306959 0.759817,-0.306959 0.428228,0 0.676447,0.276643 0.250116,0.274746 0.250116,0.748448 z m -0.348647,-0.10232 q -0.0038,-0.286115 -0.161057,-0.456649 -0.155374,-0.170532 -0.413067,-0.170532 -0.291801,0 -0.468019,0.164848 -0.174321,0.164849 -0.200848,0.464228 z"
       style="font-style:normal;font-weight:normal;font-size:14.6667px;line-height:1.25;font-family:sans-serif;text-align:center;letter-spacing:0px;word-spacing:0px;text-anchor:middle;white-space:pre;fill:#663399;fill-opacity:1;stroke:none;stroke-width:0.264583"
       id="path2761" />
    <path
       d="m 71.253457,89.336833 q -0.422542,0 -0.585494,0.09664 -0.162954,0.09663 -0.162954,0.329695 0,0.185692 0.121266,0.29559 0.123164,0.108005 0.333486,0.108005 0.289907,0 0.464228,-0.204639 0.176217,-0.206534 0.176217,-0.5476 v -0.07769 z m 0.695394,-0.144005 v 1.210781 h -0.348645 v -0.322117 q -0.119372,0.19327 -0.297484,0.286115 -0.178112,0.09095 -0.435806,0.09095 -0.325905,0 -0.519176,-0.181901 -0.191375,-0.183796 -0.191375,-0.490755 0,-0.358119 0.238744,-0.54002 0.240641,-0.181901 0.716237,-0.181901 h 0.48886 v -0.03411 q 0,-0.240641 -0.159162,-0.371383 -0.157269,-0.132635 -0.443386,-0.132635 -0.181901,0 -0.354328,0.04358 -0.172429,0.04358 -0.331591,0.130744 v -0.32212 q 0.191375,-0.07389 0.371382,-0.109897 0.180007,-0.0379 0.350538,-0.0379 0.460439,0 0.687817,0.238747 0.227375,0.238744 0.227375,0.723815 z"
       style="font-style:normal;font-weight:normal;font-size:14.6667px;line-height:1.25;font-family:sans-serif;text-align:center;letter-spacing:0px;word-spacing:0px;text-anchor:middle;white-space:pre;fill:#663399;fill-opacity:1;stroke:none;stroke-width:0.264583"
       id="path2763" />
    <path
       d="m 74.431047,89.122719 v 1.28089 h -0.348644 v -1.269521 q 0,-0.301273 -0.117478,-0.450964 -0.117477,-0.149688 -0.352433,-0.149688 -0.282326,0 -0.44528,0.180007 -0.162954,0.180006 -0.162954,0.490754 v 1.199412 h -0.350539 v -2.122183 h 0.350539 v 0.329697 q 0.125058,-0.191376 0.293695,-0.286118 0.170532,-0.09474 0.392226,-0.09474 0.365697,0 0.553284,0.227378 0.187584,0.22548 0.187584,0.665075 z"
       style="font-style:normal;font-weight:normal;font-size:14.6667px;line-height:1.25;font-family:sans-serif;text-align:center;letter-spacing:0px;word-spacing:0px;text-anchor:middle;white-space:pre;fill:#663399;fill-opacity:1;stroke:none;stroke-width:0.264583"
       id="path2765" />
    <path
       d="m 75.126443,88.281426 h 0.348644 v 2.122183 h -0.348644 z m 0,-0.826135 h 0.348644 v 0.441489 h -0.348644 z"
       style="font-style:normal;font-weight:normal;font-size:14.6667px;line-height:1.25;font-family:sans-serif;text-align:center;letter-spacing:0px;word-spacing:0px;text-anchor:middle;white-space:pre;fill:#663399;fill-opacity:1;stroke:none;stroke-width:0.264583"
       id="path2767" />
    <path
       d="m 77.968653,89.122719 v 1.28089 h -0.348644 v -1.269521 q 0,-0.301273 -0.117478,-0.450964 -0.11748,-0.149688 -0.352435,-0.149688 -0.282327,0 -0.445281,0.180007 -0.162951,0.180006 -0.162951,0.490754 v 1.199412 h -0.350541 v -2.122183 h 0.350541 v 0.329697 q 0.125055,-0.191376 0.293695,-0.286118 0.170532,-0.09474 0.392224,-0.09474 0.365699,0 0.553283,0.227378 0.187587,0.22548 0.187587,0.665075 z"
       style="font-style:normal;font-weight:normal;font-size:14.6667px;line-height:1.25;font-family:sans-serif;text-align:center;letter-spacing:0px;word-spacing:0px;text-anchor:middle;white-space:pre;fill:#663399;fill-opacity:1;stroke:none;stroke-width:0.264583"
       id="path2769" />
    <path
       d="m 80.06052,89.317886 q 0,-0.378963 -0.157271,-0.587391 -0.155374,-0.208428 -0.4377,-0.208428 -0.280432,0 -0.4377,0.208428 -0.155374,0.208428 -0.155374,0.587391 0,0.377066 0.155374,0.585494 0.157268,0.208428 0.4377,0.208428 0.282326,0 0.4377,-0.208428 0.157271,-0.208428 0.157271,-0.585494 z m 0.348644,0.822346 q 0,0.541914 -0.240641,0.805291 -0.240641,0.265274 -0.737079,0.265274 -0.183798,0 -0.346749,-0.02842 -0.162955,-0.02653 -0.316434,-0.08337 v -0.33917 q 0.153479,0.08337 0.30317,0.123161 0.149688,0.03979 0.305062,0.03979 0.342961,0 0.513493,-0.180007 0.170534,-0.178112 0.170534,-0.54002 v -0.172429 q -0.108005,0.187587 -0.276643,0.280432 -0.168637,0.09284 -0.403592,0.09284 -0.390332,0 -0.629076,-0.297484 -0.238747,-0.297485 -0.238747,-0.788239 0,-0.492652 0.238747,-0.790136 0.238744,-0.297484 0.629076,-0.297484 0.234955,0 0.403592,0.09284 0.168638,0.09284 0.276643,0.280432 v -0.322117 h 0.348644 z"
       style="font-style:normal;font-weight:normal;font-size:14.6667px;line-height:1.25;font-family:sans-serif;text-align:center;letter-spacing:0px;word-spacing:0px;text-anchor:middle;white-space:pre;fill:#663399;fill-opacity:1;stroke:none;stroke-width:0.264583"
       id="path2771" />
  </g>
</svg>
