<?xml version="1.0" encoding="UTF-8" standalone="no"?>
<svg
   xmlns:dc="http://purl.org/dc/elements/1.1/"
   xmlns:cc="http://creativecommons.org/ns#"
   xmlns:rdf="http://www.w3.org/1999/02/22-rdf-syntax-ns#"
   xmlns:svg="http://www.w3.org/2000/svg"
   xmlns="http://www.w3.org/2000/svg"
   xmlns:sodipodi="http://sodipodi.sourceforge.net/DTD/sodipodi-0.dtd"
   xmlns:inkscape="http://www.inkscape.org/namespaces/inkscape"
   sodipodi:docname="mode_area.svg"
   inkscape:version="1.0 (4035a4fb49, 2020-05-01)"
   id="svg1251"
   version="1.1"
   viewBox="0 0 14.547473 18.627564"
   height="18.627563mm"
   width="14.547474mm">
  <defs
     id="defs1245">
    <marker
       inkscape:stockid="Arrow1Send"
       orient="auto"
       refY="0"
       refX="0"
       id="Arrow1Send"
       style="overflow:visible"
       inkscape:isstock="true">
      <path
         id="path854"
         d="M 0,0 5,-5 -12.5,0 5,5 Z"
         style="fill:#663399;fill-opacity:1;fill-rule:evenodd;stroke:#663399;stroke-width:1pt;stroke-opacity:1"
         transform="matrix(-0.2,0,0,-0.2,-1.2,0)" />
    </marker>
    <marker
       inkscape:stockid="Arrow1Send"
       orient="auto"
       refY="0"
       refX="0"
       id="marker1892"
       style="overflow:visible"
       inkscape:isstock="true">
      <path
         id="path1890"
         d="M 0,0 5,-5 -12.5,0 5,5 Z"
         style="fill:#663399;fill-opacity:1;fill-rule:evenodd;stroke:#663399;stroke-width:1pt;stroke-opacity:1"
         transform="matrix(-0.2,0,0,-0.2,-1.2,0)" />
    </marker>
    <marker
       inkscape:stockid="Arrow1Send"
       orient="auto"
       refY="0"
       refX="0"
       id="marker2062"
       style="overflow:visible"
       inkscape:isstock="true">
      <path
         id="path2060"
         d="M 0,0 5,-5 -12.5,0 5,5 Z"
         style="fill:#663399;fill-opacity:1;fill-rule:evenodd;stroke:#663399;stroke-width:1pt;stroke-opacity:1"
         transform="matrix(-0.2,0,0,-0.2,-1.2,0)" />
    </marker>
    <marker
       inkscape:stockid="Arrow1Send"
       orient="auto"
       refY="0"
       refX="0"
       id="marker2135"
       style="overflow:visible"
       inkscape:isstock="true">
      <path
         id="path2133"
         d="M 0,0 5,-5 -12.5,0 5,5 Z"
         style="fill:#663399;fill-opacity:1;fill-rule:evenodd;stroke:#663399;stroke-width:1pt;stroke-opacity:1"
         transform="matrix(-0.2,0,0,-0.2,-1.2,0)" />
    </marker>
    <rect
       x="152.42015"
       y="616.79688"
       width="124.0148"
       height="40.162628"
       id="rect2475" />
    <rect
       x="152.42015"
       y="616.79688"
       width="124.0148"
       height="40.162628"
       id="rect2645" />
  </defs>
  <sodipodi:namedview
     inkscape:window-maximized="1"
     inkscape:window-y="0"
     inkscape:window-x="0"
     inkscape:window-height="1016"
     inkscape:window-width="1920"
     fit-margin-bottom="3"
     fit-margin-right="3"
     fit-margin-left="3"
     fit-margin-top="3"
     lock-margins="true"
     showgrid="false"
     inkscape:document-rotation="0"
     inkscape:current-layer="layer1"
     inkscape:document-units="mm"
     inkscape:cy="31.663426"
     inkscape:cx="17.627336"
     inkscape:zoom="6.657364"
     inkscape:pageshadow="2"
     inkscape:pageopacity="0.0"
     borderopacity="1.0"
     bordercolor="#666666"
     pagecolor="#ffffff"
     id="base" />
  <metadata
     id="metadata1248">
    <rdf:RDF>
      <cc:Work
         rdf:about="">
        <dc:format>image/svg+xml</dc:format>
        <dc:type
           rdf:resource="http://purl.org/dc/dcmitype/StillImage" />
        <dc:title></dc:title>
      </cc:Work>
    </rdf:RDF>
  </metadata>
  <g
     transform="translate(-65.428414,-74.643703)"
     id="layer1"
     inkscape:groupmode="layer"
     inkscape:label="Capa 1">
    <rect
       style="fill:#663399;fill-opacity:1;stroke:#663399;stroke-width:0.47625;stroke-linecap:round;stroke-linejoin:round;stroke-miterlimit:4;stroke-dasharray:none;stroke-opacity:1"
       id="rect2448"
       width="7.41504"
       height="3.6112058"
       x="68.91629"
       y="77.881828" />
    <rect
       style="fill:none;fill-opacity:1;stroke:#663399;stroke-width:0.47625;stroke-linecap:round;stroke-linejoin:round;stroke-miterlimit:4;stroke-dasharray:none;stroke-opacity:1"
       id="rect2450"
       width="7.415041"
       height="7.4116921"
       x="68.91629"
       y="77.881828" />
    <g
       aria-label="Area"
       transform="matrix(0.26458333,0,0,0.26458333,55.779229,-77.190007)"
       id="text2452"
       style="font-style:normal;font-weight:normal;font-size:14.6667px;line-height:1.25;font-family:sans-serif;letter-spacing:0px;word-spacing:0px;white-space:pre;shape-inside:url(#rect2454);fill:#663399;fill-opacity:1;stroke:none">
      <path
         d="m 52.706392,623.44988 -1.962244,5.32097 h 3.931649 z m -0.816408,-1.42514 h 1.639977 l 4.074879,10.69209 h -1.503909 l -0.973961,-2.74285 h -4.819672 l -0.973961,2.74285 h -1.525394 z"
         id="path2458"
         style="fill:#663399;fill-opacity:1" />
      <path
         d="m 63.756547,625.92775 q -0.222006,-0.12891 -0.48698,-0.1862 -0.257813,-0.0644 -0.572918,-0.0644 -1.11719,0 -1.718754,0.73047 -0.594402,0.72331 -0.594402,2.08399 v 4.22527 H 59.05862 v -8.02086 h 1.324873 v 1.2461 q 0.415365,-0.73047 1.081382,-1.08138 0.666017,-0.35807 1.618494,-0.35807 0.136068,0 0.300781,0.0215 0.164714,0.0143 0.365236,0.0501 z"
         id="path2460"
         style="fill:#663399;fill-opacity:1" />
      <path
         d="m 71.677139,628.37697 v 0.64454 h -6.058608 q 0.08594,1.36068 0.816408,2.07682 0.737632,0.70899 2.048182,0.70899 0.759116,0 1.468102,-0.1862 0.716148,-0.1862 1.417972,-0.55859 v 1.24609 q -0.708986,0.30078 -1.453779,0.45834 -0.744793,0.15755 -1.511071,0.15755 -1.919275,0 -3.043627,-1.11719 -1.11719,-1.11719 -1.11719,-3.02214 0,-1.96941 1.059898,-3.12241 1.06706,-1.16015 2.871752,-1.16015 1.618493,0 2.556646,1.04557 0.945315,1.03841 0.945315,2.82878 z m -1.317712,-0.38672 q -0.01432,-1.08138 -0.608725,-1.72591 -0.587241,-0.64453 -1.561201,-0.64453 -1.102868,0 -1.768885,0.62304 -0.658855,0.62305 -0.759116,1.75456 z"
         id="path2462"
         style="fill:#663399;fill-opacity:1" />
      <path
         d="m 77.485094,628.68492 q -1.597009,0 -2.212896,0.36523 -0.615886,0.36524 -0.615886,1.2461 0,0.70182 0.458334,1.11719 0.465496,0.4082 1.26042,0.4082 1.095705,0 1.754561,-0.77344 0.666017,-0.7806 0.666017,-2.06966 v -0.29362 z m 2.628261,-0.54428 v 4.57619 h -1.317711 v -1.21745 q -0.451173,0.73047 -1.124351,1.08138 -0.673179,0.34375 -1.64714,0.34375 -1.231773,0 -1.962244,-0.6875 -0.723309,-0.69467 -0.723309,-1.85482 0,-1.35352 0.902346,-2.04102 0.909507,-0.68751 2.707038,-0.68751 h 1.84766 v -0.1289 q 0,-0.90951 -0.601564,-1.40365 -0.594402,-0.5013 -1.675785,-0.5013 -0.687501,0 -1.339196,0.16471 -0.651694,0.16471 -1.253258,0.49414 v -1.21745 q 0.723309,-0.2793 1.403649,-0.41537 0.68034,-0.14322 1.324873,-0.14322 1.740238,0 2.599615,0.90234 0.859377,0.90235 0.859377,2.73568 z"
         id="path2464"
         style="fill:#663399;fill-opacity:1" />
    </g>
  </g>
</svg>
