<?xml version="1.0" encoding="UTF-8" standalone="no"?>
<svg
   xmlns:dc="http://purl.org/dc/elements/1.1/"
   xmlns:cc="http://creativecommons.org/ns#"
   xmlns:rdf="http://www.w3.org/1999/02/22-rdf-syntax-ns#"
   xmlns:svg="http://www.w3.org/2000/svg"
   xmlns="http://www.w3.org/2000/svg"
   xmlns:sodipodi="http://sodipodi.sourceforge.net/DTD/sodipodi-0.dtd"
   xmlns:inkscape="http://www.inkscape.org/namespaces/inkscape"
   sodipodi:docname="mode_random.svg"
   inkscape:version="1.0 (4035a4fb49, 2020-05-01)"
   id="svg1251"
   version="1.1"
   viewBox="0 0 21.355514 17.80111"
   height="17.801109mm"
   width="21.355515mm">
  <defs
     id="defs1245">
    <marker
       inkscape:stockid="Arrow1Send"
       orient="auto"
       refY="0"
       refX="0"
       id="Arrow1Send"
       style="overflow:visible"
       inkscape:isstock="true">
      <path
         id="path854"
         d="M 0,0 5,-5 -12.5,0 5,5 Z"
         style="fill:#663399;fill-opacity:1;fill-rule:evenodd;stroke:#663399;stroke-width:1pt;stroke-opacity:1"
         transform="matrix(-0.2,0,0,-0.2,-1.2,0)" />
    </marker>
    <marker
       inkscape:stockid="Arrow1Send"
       orient="auto"
       refY="0"
       refX="0"
       id="marker1892"
       style="overflow:visible"
       inkscape:isstock="true">
      <path
         id="path1890"
         d="M 0,0 5,-5 -12.5,0 5,5 Z"
         style="fill:#663399;fill-opacity:1;fill-rule:evenodd;stroke:#663399;stroke-width:1pt;stroke-opacity:1"
         transform="matrix(-0.2,0,0,-0.2,-1.2,0)" />
    </marker>
    <marker
       inkscape:stockid="Arrow1Send"
       orient="auto"
       refY="0"
       refX="0"
       id="marker2062"
       style="overflow:visible"
       inkscape:isstock="true">
      <path
         id="path2060"
         d="M 0,0 5,-5 -12.5,0 5,5 Z"
         style="fill:#663399;fill-opacity:1;fill-rule:evenodd;stroke:#663399;stroke-width:1pt;stroke-opacity:1"
         transform="matrix(-0.2,0,0,-0.2,-1.2,0)" />
    </marker>
  </defs>
  <sodipodi:namedview
     inkscape:window-maximized="1"
     inkscape:window-y="0"
     inkscape:window-x="0"
     inkscape:window-height="1016"
     inkscape:window-width="1920"
     fit-margin-bottom="3"
     fit-margin-right="3"
     fit-margin-left="3"
     fit-margin-top="3"
     lock-margins="true"
     showgrid="false"
     inkscape:document-rotation="0"
     inkscape:current-layer="layer1"
     inkscape:document-units="mm"
     inkscape:cy="-2.1724612"
     inkscape:cx="-9.4450661"
     inkscape:zoom="6.657364"
     inkscape:pageshadow="2"
     inkscape:pageopacity="0.0"
     borderopacity="1.0"
     bordercolor="#666666"
     pagecolor="#ffffff"
     id="base" />
  <metadata
     id="metadata1248">
    <rdf:RDF>
      <cc:Work
         rdf:about="">
        <dc:format>image/svg+xml</dc:format>
        <dc:type
           rdf:resource="http://purl.org/dc/dcmitype/StillImage" />
        <dc:title></dc:title>
      </cc:Work>
    </rdf:RDF>
  </metadata>
  <g
     transform="translate(-61.463293,-74.057805)"
     id="layer1"
     inkscape:groupmode="layer"
     inkscape:label="Capa 1">
    <path
       style="fill:none;stroke:#663399;stroke-width:0.47625;stroke-linecap:round;stroke-linejoin:round;stroke-miterlimit:4;stroke-dasharray:none;stroke-opacity:1;marker-end:url(#marker2062)"
       d="m 74.337394,78.214639 -5.162195,6.02997 h 5.843479 l -5.005232,-6.512636"
       id="path2058" />
    <g
       aria-label="Random"
       transform="matrix(0.26458333,0,0,0.26458333,-20.709804,-39.885345)"
       id="text2112"
       style="font-style:normal;font-weight:normal;font-size:14.6667px;line-height:1.25;font-family:sans-serif;letter-spacing:0px;word-spacing:0px;white-space:pre;shape-inside:url(#rect2114);fill:#663399;fill-opacity:1;stroke:none">
      <path
         d="m 326.98439,481.37176 q 0.4655,0.15756 0.90235,0.67318 0.44401,0.51563 0.88802,1.41797 l 1.4681,2.92189 h -1.55404 l -1.36784,-2.74285 q -0.52995,-1.07422 -1.03125,-1.42513 -0.49414,-0.35092 -1.35352,-0.35092 h -1.57553 v 4.5189 h -1.44661 v -10.69209 h 3.26563 q 1.83334,0 2.73568,0.76628 0.90235,0.76628 0.90235,2.31316 0,1.00977 -0.47266,1.67578 -0.4655,0.66602 -1.36068,0.92383 z m -3.62371,-4.49024 v 3.79558 h 1.81902 q 1.04557,0 1.57552,-0.47982 0.53711,-0.48698 0.53711,-1.42513 0,-0.93816 -0.53711,-1.41081 -0.52995,-0.47982 -1.57552,-0.47982 z"
         style="fill:#663399;fill-opacity:1"
         id="path2118" />
      <path
         d="m 335.37048,482.35289 q -1.59701,0 -2.2129,0.36523 -0.61589,0.36524 -0.61589,1.2461 0,0.70182 0.45834,1.11719 0.46549,0.4082 1.26042,0.4082 1.0957,0 1.75456,-0.77344 0.66602,-0.7806 0.66602,-2.06966 v -0.29362 z m 2.62826,-0.54428 v 4.57619 h -1.31771 v -1.21746 q -0.45118,0.73048 -1.12435,1.08139 -0.67318,0.34375 -1.64714,0.34375 -1.23178,0 -1.96225,-0.6875 -0.72331,-0.69467 -0.72331,-1.85483 0,-1.35351 0.90235,-2.04102 0.90951,-0.6875 2.70704,-0.6875 h 1.84766 v -0.1289 q 0,-0.90951 -0.60157,-1.40365 -0.5944,-0.50131 -1.67578,-0.50131 -0.6875,0 -1.3392,0.16472 -0.65169,0.16471 -1.25326,0.49414 v -1.21745 q 0.72331,-0.2793 1.40365,-0.41537 0.68034,-0.14323 1.32488,-0.14323 1.74023,0 2.59961,0.90235 0.85938,0.90235 0.85938,2.73568 z"
         style="fill:#663399;fill-opacity:1"
         id="path2120" />
      <path
         d="m 347.38027,481.54364 v 4.84116 h -1.31771 v -4.79819 q 0,-1.13868 -0.44401,-1.70443 -0.44401,-0.56576 -1.33204,-0.56576 -1.06706,0 -1.68294,0.68034 -0.61589,0.68034 -0.61589,1.85482 v 4.53322 h -1.32487 v -8.02086 h 1.32487 v 1.2461 q 0.47266,-0.72331 1.11003,-1.08138 0.64453,-0.35808 1.48242,-0.35808 1.38217,0 2.09115,0.85938 0.70899,0.85222 0.70899,2.51368 z"
         style="fill:#663399;fill-opacity:1"
         id="path2122" />
      <path
         d="m 355.28654,479.58139 v -4.33985 h 1.31771 v 11.14326 h -1.31771 v -1.20313 q -0.41537,0.71615 -1.05274,1.06706 -0.63021,0.34375 -1.51823,0.34375 -1.45378,0 -2.37045,-1.16016 -0.90951,-1.16016 -0.90951,-3.05079 0,-1.89063 0.90951,-3.05079 0.91667,-1.16016 2.37045,-1.16016 0.88802,0 1.51823,0.35092 0.63737,0.34375 1.05274,1.05989 z m -4.49025,2.80014 q 0,1.45378 0.5944,2.28451 0.60157,0.82357 1.64714,0.82357 1.04558,0 1.64714,-0.82357 0.60157,-0.83073 0.60157,-2.28451 0,-1.45378 -0.60157,-2.27735 -0.60156,-0.83073 -1.64714,-0.83073 -1.04557,0 -1.64714,0.83073 -0.5944,0.82357 -0.5944,2.27735 z"
         style="fill:#663399;fill-opacity:1"
         id="path2124" />
      <path
         d="m 362.42653,479.28777 q -1.0599,0 -1.67579,0.83074 -0.61588,0.82356 -0.61588,2.26302 0,1.43946 0.60872,2.27019 0.61589,0.82357 1.68295,0.82357 1.05273,0 1.66862,-0.83073 0.61589,-0.83073 0.61589,-2.26303 0,-1.42513 -0.61589,-2.25586 -0.61589,-0.8379 -1.66862,-0.8379 z m 0,-1.11719 q 1.71875,0 2.69987,1.11719 0.98113,1.11719 0.98113,3.09376 0,1.96941 -0.98113,3.09376 -0.98112,1.11719 -2.69987,1.11719 -1.72592,0 -2.70704,-1.11719 -0.97396,-1.12435 -0.97396,-3.09376 0,-1.97657 0.97396,-3.09376 0.98112,-1.11719 2.70704,-1.11719 z"
         style="fill:#663399;fill-opacity:1"
         id="path2126" />
      <path
         d="m 374.53658,479.90366 q 0.49414,-0.88802 1.18164,-1.31055 0.68751,-0.42253 1.6185,-0.42253 1.25326,0 1.9336,0.88087 0.68034,0.8737 0.68034,2.49219 v 4.84116 h -1.32488 v -4.79819 q 0,-1.153 -0.4082,-1.7116 -0.4082,-0.55859 -1.2461,-0.55859 -1.02409,0 -1.61849,0.68034 -0.5944,0.68034 -0.5944,1.85482 v 4.53322 h -1.32488 v -4.79819 q 0,-1.16016 -0.4082,-1.7116 -0.4082,-0.55859 -1.26042,-0.55859 -1.00977,0 -1.60417,0.6875 -0.5944,0.68034 -0.5944,1.84766 v 4.53322 h -1.32487 v -8.02086 h 1.32487 v 1.2461 q 0.45117,-0.73763 1.08138,-1.08854 0.63021,-0.35092 1.49675,-0.35092 0.8737,0 1.48242,0.44402 0.61589,0.44401 0.90951,1.28906 z"
         style="fill:#663399;fill-opacity:1"
         id="path2128" />
    </g>
  </g>
</svg>
