<?xml version="1.0" encoding="UTF-8" standalone="no"?>
<svg
   xmlns:dc="http://purl.org/dc/elements/1.1/"
   xmlns:cc="http://creativecommons.org/ns#"
   xmlns:rdf="http://www.w3.org/1999/02/22-rdf-syntax-ns#"
   xmlns:svg="http://www.w3.org/2000/svg"
   xmlns="http://www.w3.org/2000/svg"
   xmlns:sodipodi="http://sodipodi.sourceforge.net/DTD/sodipodi-0.dtd"
   xmlns:inkscape="http://www.inkscape.org/namespaces/inkscape"
   sodipodi:docname="mode_auto.svg"
   inkscape:version="1.0 (4035a4fb49, 2020-05-01)"
   id="svg1251"
   version="1.1"
   viewBox="0 0 14.767271 16.880278"
   height="16.880278mm"
   width="14.767271mm">
  <defs
     id="defs1245">
    <marker
       inkscape:stockid="Arrow1Send"
       orient="auto"
       refY="0"
       refX="0"
       id="Arrow1Send"
       style="overflow:visible"
       inkscape:isstock="true">
      <path
         id="path854"
         d="M 0,0 5,-5 -12.5,0 5,5 Z"
         style="fill:#663399;fill-opacity:1;fill-rule:evenodd;stroke:#663399;stroke-width:1pt;stroke-opacity:1"
         transform="matrix(-0.2,0,0,-0.2,-1.2,0)" />
    </marker>
  </defs>
  <sodipodi:namedview
     inkscape:window-maximized="1"
     inkscape:window-y="0"
     inkscape:window-x="0"
     inkscape:window-height="1016"
     inkscape:window-width="1920"
     fit-margin-bottom="3"
     fit-margin-right="3"
     fit-margin-left="3"
     fit-margin-top="3"
     lock-margins="true"
     showgrid="false"
     inkscape:document-rotation="0"
     inkscape:current-layer="layer1"
     inkscape:document-units="mm"
     inkscape:cy="31.899737"
     inkscape:cx="27.906653"
     inkscape:zoom="6.657364"
     inkscape:pageshadow="2"
     inkscape:pageopacity="0.0"
     borderopacity="1.0"
     bordercolor="#666666"
     pagecolor="#ffffff"
     id="base" />
  <metadata
     id="metadata1248">
    <rdf:RDF>
      <cc:Work
         rdf:about="">
        <dc:format>image/svg+xml</dc:format>
        <dc:type
           rdf:resource="http://purl.org/dc/dcmitype/StillImage" />
        <dc:title></dc:title>
      </cc:Work>
    </rdf:RDF>
  </metadata>
  <g
     transform="translate(-51.58065,-61.863433)"
     id="layer1"
     inkscape:groupmode="layer"
     inkscape:label="Capa 1">
    <path
       style="fill:none;stroke:#663399;stroke-width:0.47625;stroke-linecap:round;stroke-linejoin:round;stroke-miterlimit:4;stroke-dasharray:none;stroke-opacity:1;marker-end:url(#Arrow1Send)"
       d="m 60.124961,65.101558 h -4.513075 v 6.32175 h 2.006417 v -4.692184 h 1.740301 v 4.602541 h 2.825505 l -1.109461,-2.652197 1.16975,-2.733929"
       id="path837" />
    <g
       aria-label="Auto"
       id="text1167"
       style="font-style:normal;font-weight:normal;font-size:14.6667px;line-height:1.25;font-family:sans-serif;letter-spacing:0px;word-spacing:0px;white-space:pre;shape-inside:url(#rect1169);fill:#663399;fill-opacity:1;stroke:none"
       transform="matrix(0.26458333,0,0,0.26458333,40.766162,-53.277017)">
      <path
         d="m 57.110689,478.16277 -1.962244,5.32097 h 3.931649 z m -0.816409,-1.42513 h 1.639978 l 4.074879,10.69208 h -1.503909 l -0.973961,-2.74285 h -4.819672 l -0.973961,2.74285 H 52.21224 Z"
         style="fill:#663399;fill-opacity:1"
         id="path1182" />
      <path
         d="m 63.376979,484.26435 v -4.85548 h 1.317711 v 4.80535 q 0,1.13867 0.444012,1.71159 0.444011,0.56575 1.332034,0.56575 1.06706,0 1.682947,-0.68034 0.623048,-0.68034 0.623048,-1.85482 v -4.54753 h 1.317711 v 8.02085 h -1.317711 v -1.23178 q -0.479819,0.73047 -1.11719,1.08855 -0.63021,0.35091 -1.468103,0.35091 -1.382164,0 -2.098312,-0.85938 -0.716147,-0.85937 -0.716147,-2.51367 z"
         style="fill:#663399;fill-opacity:1"
         id="path1184" />
      <path
         d="m 74.112029,477.13152 v 2.27735 h 2.714199 v 1.02409 h -2.714199 v 4.35417 q 0,0.98113 0.264974,1.26042 0.272136,0.2793 1.095706,0.2793 h 1.353519 v 1.10287 h -1.353519 q -1.525394,0 -2.105474,-0.56576 -0.580079,-0.57292 -0.580079,-2.07683 v -4.35417 h -0.966799 v -1.02409 h 0.966799 v -2.27735 z"
         style="fill:#663399;fill-opacity:1"
         id="path1186" />
      <path
         d="m 81.667386,480.3327 q -1.059898,0 -1.675785,0.83073 -0.615887,0.82357 -0.615887,2.26302 0,1.43946 0.608725,2.27019 0.615887,0.82357 1.682947,0.82357 1.052737,0 1.668624,-0.83073 0.615886,-0.83073 0.615886,-2.26303 0,-1.42513 -0.615886,-2.25586 -0.615887,-0.83789 -1.668624,-0.83789 z m 0,-1.11719 q 1.718754,0 2.699876,1.11719 0.981122,1.11719 0.981122,3.09375 0,1.96941 -0.981122,3.09376 -0.981122,1.11719 -2.699876,1.11719 -1.725916,0 -2.707038,-1.11719 -0.97396,-1.12435 -0.97396,-3.09376 0,-1.97656 0.97396,-3.09375 0.981122,-1.11719 2.707038,-1.11719 z"
         style="fill:#663399;fill-opacity:1"
         id="path1188" />
    </g>
  </g>
</svg>
