<?xml version="1.0" encoding="UTF-8" standalone="no"?>
<svg
   xmlns:dc="http://purl.org/dc/elements/1.1/"
   xmlns:cc="http://creativecommons.org/ns#"
   xmlns:rdf="http://www.w3.org/1999/02/22-rdf-syntax-ns#"
   xmlns:svg="http://www.w3.org/2000/svg"
   xmlns="http://www.w3.org/2000/svg"
   xmlns:sodipodi="http://sodipodi.sourceforge.net/DTD/sodipodi-0.dtd"
   xmlns:inkscape="http://www.inkscape.org/namespaces/inkscape"
   sodipodi:docname="mode_deep.svg"
   inkscape:version="1.0 (4035a4fb49, 2020-05-01)"
   id="svg1251"
   version="1.1"
   viewBox="0 0 264.58331 264.58334"
   height="1000"
   width="1000">
  <defs
     id="defs1245">
    <rect
       x="61.506336"
       y="98.91021"
       width="52.972778"
       height="26.265972"
       id="rect11501" />
    <marker
       inkscape:stockid="Arrow1Send"
       orient="auto"
       refY="0"
       refX="0"
       id="Arrow1Send"
       style="overflow:visible"
       inkscape:isstock="true">
      <path
         id="path854"
         d="M 0,0 5,-5 -12.5,0 5,5 Z"
         style="fill:#663399;fill-opacity:1;fill-rule:evenodd;stroke:#663399;stroke-width:1pt;stroke-opacity:1"
         transform="matrix(-0.2,0,0,-0.2,-1.2,0)" />
    </marker>
    <marker
       inkscape:stockid="Arrow1Send"
       orient="auto"
       refY="0"
       refX="0"
       id="marker1892"
       style="overflow:visible"
       inkscape:isstock="true">
      <path
         id="path1890"
         d="M 0,0 5,-5 -12.5,0 5,5 Z"
         style="fill:#663399;fill-opacity:1;fill-rule:evenodd;stroke:#663399;stroke-width:1pt;stroke-opacity:1"
         transform="matrix(-0.2,0,0,-0.2,-1.2,0)" />
    </marker>
    <marker
       inkscape:stockid="Arrow1Send"
       orient="auto"
       refY="0"
       refX="0"
       id="marker2062"
       style="overflow:visible"
       inkscape:isstock="true">
      <path
         id="path2060"
         d="M 0,0 5,-5 -12.5,0 5,5 Z"
         style="fill:#663399;fill-opacity:1;fill-rule:evenodd;stroke:#663399;stroke-width:1pt;stroke-opacity:1"
         transform="matrix(-0.2,0,0,-0.2,-1.2,0)" />
    </marker>
    <marker
       inkscape:stockid="Arrow1Send"
       orient="auto"
       refY="0"
       refX="0"
       id="marker2135"
       style="overflow:visible"
       inkscape:isstock="true">
      <path
         id="path2133"
         d="M 0,0 5,-5 -12.5,0 5,5 Z"
         style="fill:#663399;fill-opacity:1;fill-rule:evenodd;stroke:#663399;stroke-width:1pt;stroke-opacity:1"
         transform="matrix(-0.2,0,0,-0.2,-1.2,0)" />
    </marker>
    <rect
       x="152.42015"
       y="616.79688"
       width="124.0148"
       height="40.162628"
       id="rect2475" />
    <rect
       x="152.42015"
       y="616.79688"
       width="124.0148"
       height="40.162628"
       id="rect2645" />
  </defs>
  <sodipodi:namedview
     inkscape:window-maximized="1"
     inkscape:window-y="0"
     inkscape:window-x="0"
     inkscape:window-height="1016"
     inkscape:window-width="1920"
     fit-margin-bottom="3"
     fit-margin-right="3"
     fit-margin-left="3"
     fit-margin-top="3"
     lock-margins="true"
     showgrid="false"
     inkscape:document-rotation="0"
     inkscape:current-layer="layer1"
     inkscape:document-units="mm"
     inkscape:cy="638.96795"
     inkscape:cx="-206.30492"
     inkscape:zoom="0.34338873"
     inkscape:pageshadow="2"
     inkscape:pageopacity="0.0"
     borderopacity="1.0"
     bordercolor="#666666"
     pagecolor="#ffffff"
     id="base"
     units="px" />
  <metadata
     id="metadata1248">
    <rdf:RDF>
      <cc:Work
         rdf:about="">
        <dc:format>image/svg+xml</dc:format>
        <dc:type
           rdf:resource="http://purl.org/dc/dcmitype/StillImage" />
        <dc:title></dc:title>
      </cc:Work>
    </rdf:RDF>
  </metadata>
  <g
     transform="translate(-61.53826,-72.235331)"
     id="layer1"
     inkscape:groupmode="layer"
     inkscape:label="Capa 1">
    <g
       transform="matrix(3.8887708,0,0,3.8887708,-631.47777,-2103.0627)"
       aria-label="x2"
       id="text2467"
       style="font-style:normal;font-weight:normal;font-size:14.6667px;line-height:1.25;font-family:sans-serif;letter-spacing:0px;word-spacing:0px;white-space:pre;shape-inside:url(#rect2469);fill:#663399;fill-opacity:1;stroke:none">
      <path
         d="m 201.26824,577.15627 -5.26043,-7.1224 h 4.93491 l 2.98177,4.32292 3.02084,-4.32292 h 4.9349 l -5.26042,7.09636 5.52084,7.48699 h -4.93491 l -3.28125,-4.60938 -3.24219,4.60938 h -4.9349 z"
         style="font-style:normal;font-variant:normal;font-weight:bold;font-stretch:normal;font-size:26.6667px;font-family:sans-serif;-inkscape-font-specification:'sans-serif Bold';fill:#663399;fill-opacity:1"
         id="path2496" />
      <path
         d="m 220.22659,580.93232 h 8.5547 v 3.6849 h -14.12762 v -3.6849 l 7.09636,-6.26303 q 0.95053,-0.85938 1.40626,-1.67969 0.45572,-0.82032 0.45572,-1.70573 0,-1.36719 -0.92448,-2.20053 -0.91146,-0.83333 -2.43489,-0.83333 -1.17188,0 -2.56511,0.50781 -1.39323,0.49479 -2.98178,1.48438 v -4.27084 q 1.69271,-0.5599 3.34636,-0.84635 1.65365,-0.29948 3.24219,-0.29948 3.48959,0 5.41668,1.53646 1.9401,1.53646 1.9401,4.28386 0,1.58854 -0.82031,2.96875 -0.82031,1.36719 -3.45053,3.67188 z"
         style="font-style:normal;font-variant:normal;font-weight:bold;font-stretch:normal;font-size:26.6667px;font-family:sans-serif;-inkscape-font-specification:'sans-serif Bold';fill:#663399;fill-opacity:1"
         id="path2498" />
    </g>
    <g
       transform="matrix(5,0,0,5,-244.50726,-292.47507)"
       aria-label="Deep cleaning"
       id="text11499"
       style="font-style:normal;font-weight:normal;font-size:9.87778px;line-height:1.25;font-family:sans-serif;text-align:center;letter-spacing:0px;word-spacing:0px;text-anchor:middle;white-space:pre;shape-inside:url(#rect11501);fill:#663399;fill-opacity:1;stroke:none">
      <path
         d="m 76.920684,101.24938 v 5.59965 h 1.176844 q 1.490349,0 2.180057,-0.67523 0.694531,-0.67524 0.694531,-2.13183 0,-1.44694 -0.694531,-2.11736 -0.689708,-0.67523 -2.180057,-0.67523 z m -0.974273,-0.80064 h 2.0016 q 2.09324,0 3.072337,0.87298 0.979096,0.86817 0.979096,2.72025 0,1.86173 -0.98392,2.73472 -0.983919,0.87298 -3.067513,0.87298 h -2.0016 z"
         style="font-size:9.87778px;text-align:center;text-anchor:middle;fill:#663399;fill-opacity:1"
         id="path12559" />
      <path
         d="m 88.13447,104.72686 v 0.43408 h -4.080371 q 0.05788,0.91639 0.549837,1.39871 0.496783,0.47749 1.379416,0.47749 0.511252,0 0.988743,-0.1254 0.482313,-0.12541 0.95498,-0.37621 v 0.83923 q -0.47749,0.20257 -0.979096,0.30868 -0.501606,0.10611 -1.017681,0.10611 -1.2926,0 -2.049832,-0.75241 -0.752409,-0.75241 -0.752409,-2.03537 0,-1.32636 0.713824,-2.10288 0.718647,-0.78135 1.934076,-0.78135 1.090029,0 1.721859,0.70418 0.636654,0.69935 0.636654,1.90514 z m -0.887457,-0.26045 q -0.0096,-0.7283 -0.409966,-1.16238 -0.395497,-0.43408 -1.051443,-0.43408 -0.742763,0 -1.191314,0.41961 -0.443729,0.41961 -0.511253,1.18167 z"
         style="font-size:9.87778px;text-align:center;text-anchor:middle;fill:#663399;fill-opacity:1"
         id="path12561" />
      <path
         d="m 94.211618,104.72686 v 0.43408 h -4.080371 q 0.05788,0.91639 0.549837,1.39871 0.496783,0.47749 1.379417,0.47749 0.511252,0 0.988742,-0.1254 0.482313,-0.12541 0.954981,-0.37621 v 0.83923 q -0.477491,0.20257 -0.979097,0.30868 -0.501606,0.10611 -1.017681,0.10611 -1.2926,0 -2.049832,-0.75241 -0.752409,-0.75241 -0.752409,-2.03537 0,-1.32636 0.713824,-2.10288 0.718647,-0.78135 1.934077,-0.78135 1.090028,0 1.721859,0.70418 0.636653,0.69935 0.636653,1.90514 z m -0.887456,-0.26045 q -0.0096,-0.7283 -0.409967,-1.16238 -0.395497,-0.43408 -1.051443,-0.43408 -0.742762,0 -1.191314,0.41961 -0.443728,0.41961 -0.511252,1.18167 z"
         style="font-size:9.87778px;text-align:center;text-anchor:middle;fill:#663399;fill-opacity:1"
         id="path12563" />
      <path
         d="m 96.526723,106.83939 v 2.86494 h -0.892279 v -7.45657 h 0.892279 v 0.81994 q 0.279742,-0.48232 0.704178,-0.71383 0.429259,-0.23633 1.022504,-0.23633 0.98392,0 1.596458,0.78135 0.617357,0.78135 0.617357,2.05465 0,1.27331 -0.617357,2.05466 -0.612538,0.78135 -1.596458,0.78135 -0.593245,0 -1.022504,-0.23151 -0.424436,-0.23634 -0.704178,-0.71865 z m 3.019282,-1.88585 q 0,-0.97909 -0.405143,-1.53375 -0.40032,-0.55949 -1.104498,-0.55949 -0.704177,0 -1.109321,0.55949 -0.40032,0.55466 -0.40032,1.53375 0,0.9791 0.40032,1.53858 0.405144,0.55466 1.109321,0.55466 0.704178,0 1.104498,-0.55466 0.405143,-0.55948 0.405143,-1.53858 z"
         style="font-size:9.87778px;text-align:center;text-anchor:middle;fill:#663399;fill-opacity:1"
         id="path12565" />
      <path
         d="m 71.890155,114.80238 v 0.82958 q -0.376204,-0.20739 -0.757232,-0.30868 -0.376204,-0.10611 -0.762055,-0.10611 -0.863341,0 -1.340831,0.54984 -0.47749,0.54501 -0.47749,1.53375 0,0.98875 0.47749,1.53858 0.47749,0.54502 1.340831,0.54502 0.385851,0 0.762055,-0.10129 0.381028,-0.10611 0.757232,-0.3135 v 0.81993 q -0.371381,0.17363 -0.771701,0.26045 -0.395497,0.0868 -0.844049,0.0868 -1.220252,0 -1.938899,-0.76688 -0.718647,-0.76688 -0.718647,-2.06913 0,-1.32153 0.72347,-2.07877 0.728293,-0.75723 1.991954,-0.75723 0.409966,0 0.80064,0.0868 0.390674,0.082 0.757232,0.2508 z"
         style="font-size:9.87778px;text-align:center;text-anchor:middle;fill:#663399;fill-opacity:1"
         id="path12567" />
      <path
         d="m 73.433558,112.4921 h 0.887457 v 7.5048 h -0.887457 z"
         style="font-size:9.87778px;text-align:center;text-anchor:middle;fill:#663399;fill-opacity:1"
         id="path12569" />
      <path
         d="m 80.798484,117.07408 v 0.43408 h -4.080372 q 0.05788,0.91639 0.549838,1.39871 0.496782,0.47749 1.379416,0.47749 0.511252,0 0.988742,-0.1254 0.482314,-0.1254 0.954981,-0.37621 v 0.83923 q -0.47749,0.20257 -0.979096,0.30868 -0.501606,0.10611 -1.017682,0.10611 -1.2926,0 -2.049832,-0.75241 -0.752408,-0.75241 -0.752408,-2.03536 0,-1.32637 0.713823,-2.10289 0.718647,-0.78135 1.934077,-0.78135 1.090028,0 1.721859,0.70418 0.636654,0.69935 0.636654,1.90514 z m -0.887457,-0.26045 q -0.0096,-0.7283 -0.409966,-1.16238 -0.395497,-0.43408 -1.051444,-0.43408 -0.742762,0 -1.191314,0.41961 -0.443728,0.41962 -0.511252,1.18167 z"
         style="font-size:9.87778px;text-align:center;text-anchor:middle;fill:#663399;fill-opacity:1"
         id="path12571" />
      <path
         d="m 84.710045,117.28147 q -1.075559,0 -1.490348,0.24598 -0.41479,0.24598 -0.41479,0.83923 0,0.47266 0.308681,0.75241 0.313503,0.27491 0.848871,0.27491 0.73794,0 1.181668,-0.52089 0.448551,-0.52573 0.448551,-1.39389 v -0.19775 z m 1.77009,-0.36656 v 3.08199 h -0.887457 v -0.81994 q -0.303857,0.49196 -0.757232,0.7283 -0.453374,0.23151 -1.10932,0.23151 -0.829579,0 -1.321539,-0.46302 -0.487137,-0.46785 -0.487137,-1.2492 0,-0.91157 0.607715,-1.37459 0.612538,-0.46302 1.823145,-0.46302 h 1.244368 v -0.0868 q 0,-0.61253 -0.405143,-0.94533 -0.40032,-0.33762 -1.128613,-0.33762 -0.463021,0 -0.901926,0.11093 -0.438905,0.11093 -0.844049,0.3328 v -0.81993 q 0.487137,-0.18811 0.945335,-0.27975 0.458197,-0.0965 0.892279,-0.0965 1.172022,0 1.750798,0.60772 0.578776,0.60771 0.578776,1.84243 z"
         style="font-size:9.87778px;text-align:center;text-anchor:middle;fill:#663399;fill-opacity:1"
         id="path12573" />
      <path
         d="m 92.79844,116.73646 v 3.26044 h -0.887456 v -3.2315 q 0,-0.76688 -0.299035,-1.14791 -0.299034,-0.38103 -0.897103,-0.38103 -0.718647,0 -1.133436,0.4582 -0.41479,0.4582 -0.41479,1.24919 v 3.05305 h -0.892279 v -5.40191 h 0.892279 v 0.83922 q 0.318327,-0.48714 0.747586,-0.72829 0.434082,-0.24116 0.998389,-0.24116 0.930865,0 1.408355,0.57878 0.47749,0.57395 0.47749,1.69292 z"
         style="font-size:9.87778px;text-align:center;text-anchor:middle;fill:#663399;fill-opacity:1"
         id="path12575" />
      <path
         d="m 94.56853,114.59499 h 0.887457 v 5.40191 H 94.56853 Z m 0,-2.10289 h 0.887457 v 1.12379 H 94.56853 Z"
         style="font-size:9.87778px;text-align:center;text-anchor:middle;fill:#663399;fill-opacity:1"
         id="path12577" />
      <path
         d="m 101.80323,116.73646 v 3.26044 h -0.88746 v -3.2315 q 0,-0.76688 -0.29903,-1.14791 -0.29903,-0.38103 -0.897102,-0.38103 -0.718647,0 -1.133437,0.4582 -0.414789,0.4582 -0.414789,1.24919 v 3.05305 h -0.89228 v -5.40191 h 0.89228 v 0.83922 q 0.318327,-0.48714 0.747585,-0.72829 0.434082,-0.24116 0.998389,-0.24116 0.930864,0 1.408354,0.57878 0.47749,0.57395 0.47749,1.69292 z"
         style="font-size:9.87778px;text-align:center;text-anchor:middle;fill:#663399;fill-opacity:1"
         id="path12579" />
      <path
         d="m 107.12797,117.23324 q 0,-0.96463 -0.40032,-1.49517 -0.3955,-0.53055 -1.11414,-0.53055 -0.71383,0 -1.11415,0.53055 -0.3955,0.53054 -0.3955,1.49517 0,0.9598 0.3955,1.49035 0.40032,0.53054 1.11415,0.53054 0.71864,0 1.11414,-0.53054 0.40032,-0.53055 0.40032,-1.49035 z m 0.88746,2.09324 q 0,1.37942 -0.61254,2.04983 -0.61254,0.67524 -1.8762,0.67524 -0.46785,0 -0.88263,-0.0724 -0.41479,-0.0675 -0.80547,-0.21221 v -0.86334 q 0.39068,0.21221 0.7717,0.3135 0.38103,0.10128 0.77653,0.10128 0.87298,0 1.30707,-0.45819 0.43408,-0.45338 0.43408,-1.3746 v -0.4389 q -0.27492,0.47749 -0.70418,0.71382 -0.42926,0.23634 -1.02733,0.23634 -0.99356,0 -1.60128,-0.75724 -0.60771,-0.75723 -0.60771,-2.00642 0,-1.25401 0.60771,-2.01125 0.60772,-0.75723 1.60128,-0.75723 0.59807,0 1.02733,0.23634 0.42926,0.23633 0.70418,0.71382 v -0.81993 h 0.88746 z"
         style="font-size:9.87778px;text-align:center;text-anchor:middle;fill:#663399;fill-opacity:1"
         id="path12581" />
    </g>
  </g>
</svg>
