<?xml version="1.0" encoding="UTF-8" standalone="no"?>
<svg
   xmlns:dc="http://purl.org/dc/elements/1.1/"
   xmlns:cc="http://creativecommons.org/ns#"
   xmlns:rdf="http://www.w3.org/1999/02/22-rdf-syntax-ns#"
   xmlns:svg="http://www.w3.org/2000/svg"
   xmlns="http://www.w3.org/2000/svg"
   xmlns:sodipodi="http://sodipodi.sourceforge.net/DTD/sodipodi-0.dtd"
   xmlns:inkscape="http://www.inkscape.org/namespaces/inkscape"
   sodipodi:docname="mode_edge.svg"
   inkscape:version="1.0 (4035a4fb49, 2020-05-01)"
   id="svg1251"
   version="1.1"
   viewBox="0 0 15.178445 16.997451"
   height="16.99745mm"
   width="15.178446mm">
  <defs
     id="defs1245">
    <marker
       inkscape:stockid="Arrow1Send"
       orient="auto"
       refY="0"
       refX="0"
       id="Arrow1Send"
       style="overflow:visible"
       inkscape:isstock="true">
      <path
         id="path854"
         d="M 0,0 5,-5 -12.5,0 5,5 Z"
         style="fill:#663399;fill-opacity:1;fill-rule:evenodd;stroke:#663399;stroke-width:1pt;stroke-opacity:1"
         transform="matrix(-0.2,0,0,-0.2,-1.2,0)" />
    </marker>
    <marker
       inkscape:stockid="Arrow1Send"
       orient="auto"
       refY="0"
       refX="0"
       id="marker1892"
       style="overflow:visible"
       inkscape:isstock="true">
      <path
         id="path1890"
         d="M 0,0 5,-5 -12.5,0 5,5 Z"
         style="fill:#663399;fill-opacity:1;fill-rule:evenodd;stroke:#663399;stroke-width:1pt;stroke-opacity:1"
         transform="matrix(-0.2,0,0,-0.2,-1.2,0)" />
    </marker>
    <marker
       inkscape:stockid="Arrow1Send"
       orient="auto"
       refY="0"
       refX="0"
       id="marker2062"
       style="overflow:visible"
       inkscape:isstock="true">
      <path
         id="path2060"
         d="M 0,0 5,-5 -12.5,0 5,5 Z"
         style="fill:#663399;fill-opacity:1;fill-rule:evenodd;stroke:#663399;stroke-width:1pt;stroke-opacity:1"
         transform="matrix(-0.2,0,0,-0.2,-1.2,0)" />
    </marker>
    <marker
       inkscape:stockid="Arrow1Send"
       orient="auto"
       refY="0"
       refX="0"
       id="marker2135"
       style="overflow:visible"
       inkscape:isstock="true">
      <path
         id="path2133"
         d="M 0,0 5,-5 -12.5,0 5,5 Z"
         style="fill:#663399;fill-opacity:1;fill-rule:evenodd;stroke:#663399;stroke-width:1pt;stroke-opacity:1"
         transform="matrix(-0.2,0,0,-0.2,-1.2,0)" />
    </marker>
  </defs>
  <sodipodi:namedview
     inkscape:window-maximized="1"
     inkscape:window-y="0"
     inkscape:window-x="0"
     inkscape:window-height="1016"
     inkscape:window-width="1920"
     fit-margin-bottom="3"
     fit-margin-right="3"
     fit-margin-left="3"
     fit-margin-top="3"
     lock-margins="true"
     showgrid="false"
     inkscape:document-rotation="0"
     inkscape:current-layer="layer1"
     inkscape:document-units="mm"
     inkscape:cy="34.755411"
     inkscape:cx="10.075827"
     inkscape:zoom="6.657364"
     inkscape:pageshadow="2"
     inkscape:pageopacity="0.0"
     borderopacity="1.0"
     bordercolor="#666666"
     pagecolor="#ffffff"
     id="base" />
  <metadata
     id="metadata1248">
    <rdf:RDF>
      <cc:Work
         rdf:about="">
        <dc:format>image/svg+xml</dc:format>
        <dc:type
           rdf:resource="http://purl.org/dc/dcmitype/StillImage" />
        <dc:title></dc:title>
      </cc:Work>
    </rdf:RDF>
  </metadata>
  <g
     transform="translate(-56.29839,-67.466742)"
     id="layer1"
     inkscape:groupmode="layer"
     inkscape:label="Capa 1">
    <path
       style="fill:none;stroke:#663399;stroke-width:0.47625;stroke-linecap:round;stroke-linejoin:round;stroke-miterlimit:4;stroke-dasharray:none;stroke-opacity:1;marker-end:url(#marker2135)"
       d="m 66.535867,70.704867 h -5.103135 v 5.027028"
       id="path2131" />
    <g
       aria-label="Edge"
       transform="matrix(0.26458333,0,0,0.26458333,-67.418938,-48.033338)"
       id="text2191"
       style="font-style:normal;font-weight:normal;font-size:14.6667px;line-height:1.25;font-family:sans-serif;letter-spacing:0px;word-spacing:0px;white-space:pre;shape-inside:url(#rect2193);fill:#663399;fill-opacity:1;stroke:none">
      <path
         d="m 478.93164,475.69662 h 6.76044 v 1.21745 h -5.31382 v 3.16537 h 5.09181 v 1.21745 h -5.09181 v 3.87436 h 5.44272 v 1.21745 h -6.88934 z"
         id="path2197"
         style="fill:#663399;fill-opacity:1" />
      <path
         d="m 493.41931,479.5853 v -4.33985 h 1.31771 v 11.14325 h -1.31771 v -1.20313 q -0.41537,0.71615 -1.05274,1.06706 -0.63021,0.34375 -1.51823,0.34375 -1.45378,0 -2.37045,-1.16015 -0.90951,-1.16016 -0.90951,-3.05079 0,-1.89063 0.90951,-3.05079 0.91667,-1.16016 2.37045,-1.16016 0.88802,0 1.51823,0.35091 0.63737,0.34375 1.05274,1.0599 z m -4.49025,2.80014 q 0,1.45378 0.59441,2.28451 0.60156,0.82357 1.64713,0.82357 1.04558,0 1.64714,-0.82357 0.60157,-0.83073 0.60157,-2.28451 0,-1.45378 -0.60157,-2.27735 -0.60156,-0.83073 -1.64714,-0.83073 -1.04557,0 -1.64713,0.83073 -0.59441,0.82357 -0.59441,2.27735 z"
         id="path2199"
         style="fill:#663399;fill-opacity:1" />
      <path
         d="m 502.72923,482.28518 q 0,-1.4323 -0.59441,-2.22006 -0.58724,-0.78776 -1.6543,-0.78776 -1.0599,0 -1.6543,0.78776 -0.58724,0.78776 -0.58724,2.22006 0,1.42513 0.58724,2.21289 0.5944,0.78776 1.6543,0.78776 1.06706,0 1.6543,-0.78776 0.59441,-0.78776 0.59441,-2.21289 z m 1.31771,3.10808 q 0,2.04818 -0.90951,3.04362 -0.90951,1.00261 -2.78581,1.00261 -0.69467,0 -1.31055,-0.10742 -0.61589,-0.10026 -1.19597,-0.31511 v -1.2819 q 0.58008,0.3151 1.14584,0.46549 0.56575,0.1504 1.15299,0.1504 1.29623,0 1.94076,-0.68034 0.64454,-0.67318 0.64454,-2.04102 v -0.6517 q -0.40821,0.70899 -1.04558,1.0599 -0.63737,0.35091 -1.52539,0.35091 -1.47527,0 -2.37761,-1.12435 -0.90235,-1.12435 -0.90235,-2.97917 0,-1.86199 0.90235,-2.98634 0.90234,-1.12435 2.37761,-1.12435 0.88802,0 1.52539,0.35091 0.63737,0.35091 1.04558,1.0599 v -1.21745 h 1.31771 z"
         id="path2201"
         style="fill:#663399;fill-opacity:1" />
      <path
         d="m 513.62183,482.04885 v 0.64453 h -6.05861 q 0.0859,1.36068 0.81641,2.07683 0.73763,0.70898 2.04818,0.70898 0.75912,0 1.4681,-0.18619 0.71615,-0.1862 1.41798,-0.5586 v 1.2461 q -0.70899,0.30078 -1.45378,0.45833 -0.7448,0.15755 -1.51108,0.15755 -1.91927,0 -3.04362,-1.11719 -1.11719,-1.11719 -1.11719,-3.02214 0,-1.9694 1.0599,-3.1224 1.06706,-1.16016 2.87175,-1.16016 1.61849,0 2.55664,1.04558 0.94532,1.03841 0.94532,2.82878 z m -1.31771,-0.38672 q -0.0143,-1.08138 -0.60873,-1.72592 -0.58724,-0.64453 -1.5612,-0.64453 -1.10287,0 -1.76888,0.62305 -0.65886,0.62305 -0.75912,1.75456 z"
         id="path2203"
         style="fill:#663399;fill-opacity:1" />
    </g>
  </g>
</svg>
