<?xml version="1.0" encoding="UTF-8" standalone="no"?>
<svg
   xmlns:dc="http://purl.org/dc/elements/1.1/"
   xmlns:cc="http://creativecommons.org/ns#"
   xmlns:rdf="http://www.w3.org/1999/02/22-rdf-syntax-ns#"
   xmlns:svg="http://www.w3.org/2000/svg"
   xmlns="http://www.w3.org/2000/svg"
   xmlns:sodipodi="http://sodipodi.sourceforge.net/DTD/sodipodi-0.dtd"
   xmlns:inkscape="http://www.inkscape.org/namespaces/inkscape"
   inkscape:version="1.0 (4035a4fb49, 2020-05-01)"
   height="200"
   width="200"
   sodipodi:docname="settings.svg"
   id="svg5507"
   viewBox="0 0 200 200"
   version="1.1">
  <metadata
     id="metadata5513">
    <rdf:RDF>
      <cc:Work
         rdf:about="">
        <dc:format>image/svg+xml</dc:format>
        <dc:type
           rdf:resource="http://purl.org/dc/dcmitype/StillImage" />
        <dc:title></dc:title>
      </cc:Work>
    </rdf:RDF>
  </metadata>
  <defs
     id="defs5511" />
  <sodipodi:namedview
     inkscape:current-layer="svg5507"
     inkscape:window-maximized="1"
     inkscape:window-y="0"
     inkscape:window-x="0"
     inkscape:cy="93.324587"
     inkscape:cx="102.19787"
     inkscape:zoom="2.5986174"
     showgrid="false"
     id="namedview5509"
     inkscape:window-height="1016"
     inkscape:window-width="1920"
     inkscape:pageshadow="2"
     inkscape:pageopacity="0"
     guidetolerance="10"
     gridtolerance="10"
     objecttolerance="10"
     borderopacity="1"
     bordercolor="#666666"
     pagecolor="#ffffff" />
  <path
     style="fill:#663399;fill-opacity:1;stroke:none;stroke-width:1.76355;stroke-opacity:1"
     id="path5505"
     d="m 100.30179,11.845241 c -5.085893,0 -10.076729,0.457393 -14.927011,1.284038 l -2.367385,25.079395 c -5.016232,1.398263 -9.763875,3.353383 -14.204661,5.858501 L 49.421357,28.056818 C 41.23515,33.851832 34.068979,40.976384 28.274671,49.162943 L 44.32506,68.544318 c -2.50212,4.435496 -4.50057,9.195132 -5.898534,14.204662 l -25.037069,2.380788 c -0.82698,4.849752 -1.283862,9.840589 -1.283862,14.972512 0,5.09612 0.45406,10.0672 1.284038,14.92683 l 25.038833,2.36756 c 1.398034,5.00953 3.396591,9.76917 5.898534,14.20466 l -16.010357,19.38138 c 5.783727,8.16416 12.902283,15.32257 21.065563,21.10612 l 19.421937,-16.05056 c 4.443608,2.50723 9.184903,4.49969 14.204662,5.89853 l 2.367385,25.07939 c 4.850282,0.82676 9.841118,1.24401 14.92701,1.24401 5.08572,0 10.03652,-0.41725 14.8868,-1.24401 l 2.36739,-25.07939 c 5.01993,-1.39884 9.76105,-3.3913 14.20466,-5.89853 l 19.42193,16.05056 c 8.16399,-5.7839 15.28255,-12.94231 21.06558,-21.10612 l -16.01037,-19.38138 c 2.50212,-4.43549 4.50057,-9.19513 5.89853,-14.20466 l 25.03885,-2.36756 c 0.82997,-4.85963 1.28403,-9.83071 1.28403,-14.92683 0,-5.087482 -0.45688,-10.07532 -1.28403,-14.927013 l -25.03885,-2.367385 c -1.39803,-5.00953 -3.39659,-9.769165 -5.89853,-14.204661 l 16.0504,-19.381376 c -5.79414,-8.186912 -12.96031,-15.311287 -21.1467,-21.106124 l -19.38137,16.010357 c -4.44079,-2.505118 -9.18843,-4.460186 -14.20466,-5.858502 l -2.36739,-25.079394 c -4.85028,-0.826645 -9.80108,-1.284039 -14.8868,-1.284039 z m 0,54.611744 c 18.54545,0 33.54618,15.039524 33.54618,33.584975 0,18.54546 -14.99949,33.58498 -33.54618,33.58498 -18.545456,0 -33.58498,-15.03952 -33.58498,-33.58498 0,-18.545451 15.039524,-33.584975 33.58498,-33.584975 z" />
</svg>
