<?xml version="1.0" encoding="UTF-8" standalone="no"?>
<svg
   xmlns:dc="http://purl.org/dc/elements/1.1/"
   xmlns:cc="http://creativecommons.org/ns#"
   xmlns:rdf="http://www.w3.org/1999/02/22-rdf-syntax-ns#"
   xmlns:svg="http://www.w3.org/2000/svg"
   xmlns="http://www.w3.org/2000/svg"
   xmlns:sodipodi="http://sodipodi.sourceforge.net/DTD/sodipodi-0.dtd"
   xmlns:inkscape="http://www.inkscape.org/namespaces/inkscape"
   height="1000"
   width="1000"
   inkscape:version="1.0 (4035a4fb49, 2020-05-01)"
   version="1.1"
   viewBox="0 0 1000 1000"
   sodipodi:docname="speaker_enabled.svg"
   id="svg3943">
  <defs
     id="defs3573" />
  <sodipodi:namedview
     lock-margins="true"
     inkscape:document-rotation="0"
     inkscape:document-units="px"
     inkscape:pageopacity="0.0"
     inkscape:window-width="1920"
     fit-margin-bottom="30"
     fit-margin-right="30"
     inkscape:cy="500"
     inkscape:cx="500"
     inkscape:current-layer="layer1"
     borderopacity="1.0"
     showgrid="false"
     inkscape:window-height="1016"
     inkscape:window-x="0"
     inkscape:zoom="0.777"
     inkscape:window-maximized="1"
     fit-margin-top="30"
     pagecolor="#ffffff"
     fit-margin-left="30"
     inkscape:window-y="0"
     inkscape:pageshadow="2"
     bordercolor="#666666"
     id="base" />
  <g
     transform="translate(-219.54293,-322.54225)"
     inkscape:groupmode="layer"
     inkscape:label="Layer 1"
     id="layer1">
    <path
       id="speaker"
       style="fill:#663399;fill-opacity:1;stroke:#663399;stroke-width:25;stroke-miterlimit:4;stroke-dasharray:none;stroke-opacity:1"
       inkscape:connector-curvature="0"
       d="m 710.53581,816.89063 c 0.053,25.50815 -3.8387,51.0211 -11.4938,75.35315 l 50.9348,63.9515 c 20.87225,-43.2601 31.81255,-91.27545 31.7411,-139.30465 -0.071,-47.9636 -11.1225,-95.8789 -32.06615,-139.02855 l -50.93945,63.38015 c 7.75805,24.5452 11.7707,50.09125 11.8235,75.6484 z M 439.15646,710.11733 h -84.529 v 213.5466 h 84.529 L 639.35511,1172.8028 V 472.28709 Z m 358.96965,-92.85595 c 35.5405,60.1072 54.6652,129.81475 54.77565,199.64305 0.1115,70.063 -18.9232,140.0638 -54.4996,200.42297 l 46.82485,58.4474 c 51.1764,-75.90882 79.02145,-167.32232 78.8558,-258.87037 -0.164,-91.3272 -27.7966,-182.5267 -79.33795,-258.0744 z m 93.2597,-116.50475 c 66.91235,90.82685 103.8815,203.33895 103.8815,316.1478 0,112.8123 -36.96915,225.32447 -103.8815,316.14787 l 45.76885,57.8365 c 83.10384,-105.6069 129.42824,-239.60067 129.29714,-373.97057 -0.132,-134.1387 -46.4796,-267.6355 -129.60659,-373.19239 z"
       sodipodi:nodetypes="ccccccccccccccccccccccsccccc" />
  </g>
  <metadata
     id="metadata8">
    <rdf:RDF>
      <cc:Work>
        <dc:format>image/svg+xml</dc:format>
        <dc:type
           rdf:resource="http://purl.org/dc/dcmitype/StillImage" />
        <cc:license
           rdf:resource="http://creativecommons.org/publicdomain/zero/1.0/" />
        <dc:publisher>
          <cc:Agent
             rdf:about="http://openclipart.org/">
            <dc:title>Openclipart</dc:title>
          </cc:Agent>
        </dc:publisher>
        <dc:title></dc:title>
      </cc:Work>
      <cc:License
         rdf:about="http://creativecommons.org/publicdomain/zero/1.0/">
        <cc:permits
           rdf:resource="http://creativecommons.org/ns#Reproduction" />
        <cc:permits
           rdf:resource="http://creativecommons.org/ns#Distribution" />
        <cc:permits
           rdf:resource="http://creativecommons.org/ns#DerivativeWorks" />
      </cc:License>
    </rdf:RDF>
  </metadata>
</svg>
