<?xml version="1.0" encoding="UTF-8" standalone="no"?>
<svg
   xmlns:dc="http://purl.org/dc/elements/1.1/"
   xmlns:cc="http://creativecommons.org/ns#"
   xmlns:rdf="http://www.w3.org/1999/02/22-rdf-syntax-ns#"
   xmlns:svg="http://www.w3.org/2000/svg"
   xmlns="http://www.w3.org/2000/svg"
   xmlns:sodipodi="http://sodipodi.sourceforge.net/DTD/sodipodi-0.dtd"
   xmlns:inkscape="http://www.inkscape.org/namespaces/inkscape"
   id="svg3943"
   sodipodi:docname="speaker_enabled.svg"
   viewBox="0 0 200 200.00001"
   version="1.1"
   inkscape:version="1.0 (4035a4fb49, 2020-05-01)"
   width="200"
   height="200">
  <defs
     id="defs3573" />
  <sodipodi:namedview
     id="base"
     bordercolor="#666666"
     inkscape:pageshadow="2"
     inkscape:window-y="0"
     fit-margin-left="30"
     pagecolor="#ffffff"
     fit-margin-top="30"
     inkscape:window-maximized="1"
     inkscape:zoom="3.885"
     inkscape:window-x="0"
     inkscape:window-height="1016"
     showgrid="false"
     borderopacity="1.0"
     inkscape:current-layer="layer1"
     inkscape:cx="100"
     inkscape:cy="100"
     fit-margin-right="30"
     fit-margin-bottom="30"
     inkscape:window-width="1920"
     inkscape:pageopacity="0.0"
     inkscape:document-units="px"
     inkscape:document-rotation="0"
     lock-margins="true" />
  <g
     id="layer1"
     inkscape:label="Layer 1"
     inkscape:groupmode="layer"
     transform="translate(-219.54293,-322.54225)">
    <path
       sodipodi:nodetypes="ccccccccccccccccccccccsccccc"
       d="m 319.71288,421.85293 c 0.0106,5.10163 -0.76774,10.20422 -2.29876,15.07063 l 10.18696,12.7903 c 4.17445,-8.65202 6.36251,-18.25509 6.34822,-27.86093 -0.0142,-9.59272 -2.2245,-19.17578 -6.41323,-27.80571 l -10.18789,12.67603 c 1.55161,4.90904 2.35414,10.01825 2.3647,15.12968 z m -54.27587,-21.35466 h -16.9058 v 42.70932 h 16.9058 l 40.03973,49.82777 V 352.93222 Z m 71.79393,-18.57119 c 7.1081,12.02144 10.93304,25.96295 10.95513,39.92861 0.0223,14.0126 -3.78464,28.01276 -10.89992,40.08459 l 9.36497,11.68947 c 10.23528,-15.18175 15.80429,-33.46445 15.77116,-51.77406 -0.0328,-18.26544 -5.55932,-36.50534 -15.86759,-51.61488 z m 18.65194,-23.30095 c 13.38247,18.16537 20.7763,40.66779 20.7763,63.22956 0,22.56246 -7.39383,45.06489 -20.7763,63.22956 l 9.15377,11.56731 c 16.62076,-21.12138 25.88565,-47.92013 25.85943,-74.79411 -0.0264,-26.82774 -9.29593,-53.5271 -25.92132,-74.63848 z"
       inkscape:connector-curvature="0"
       style="fill:#663399;fill-opacity:1;stroke:#663399;stroke-width:5;stroke-miterlimit:4;stroke-dasharray:none;stroke-opacity:1"
       id="speaker" />
  </g>
  <metadata
     id="metadata8">
    <rdf:RDF>
      <cc:Work>
        <dc:format>image/svg+xml</dc:format>
        <dc:type
           rdf:resource="http://purl.org/dc/dcmitype/StillImage" />
        <cc:license
           rdf:resource="http://creativecommons.org/publicdomain/zero/1.0/" />
        <dc:publisher>
          <cc:Agent
             rdf:about="http://openclipart.org/">
            <dc:title>Openclipart</dc:title>
          </cc:Agent>
        </dc:publisher>
        <dc:title></dc:title>
      </cc:Work>
      <cc:License
         rdf:about="http://creativecommons.org/publicdomain/zero/1.0/">
        <cc:permits
           rdf:resource="http://creativecommons.org/ns#Reproduction" />
        <cc:permits
           rdf:resource="http://creativecommons.org/ns#Distribution" />
        <cc:permits
           rdf:resource="http://creativecommons.org/ns#DerivativeWorks" />
      </cc:License>
    </rdf:RDF>
  </metadata>
</svg>
